<svg xmlns="http://www.w3.org/2000/svg" width="720" height="240">
  <rect width="100%" height="100%" fill="#0f0f14"/>
  <g font-family="monospace" font-size="12" fill="#e8e8e8">
    <text x="20" y="24">Failures per 5m</text>
  </g>
  <!-- Axes -->
  <line x1="60" y1="200" x2="680" y2="200" stroke="#444"/>
  <line x1="60" y1="60" x2="60" y2="200" stroke="#444"/>
  <!-- Bars -->
  <rect x="70" y="160" width="20" height="40" fill="#e74c3c"/>
  <rect x="100" y="150" width="20" height="50" fill="#e74c3c"/>
  <rect x="130" y="140" width="20" height="60" fill="#e74c3c"/>
  <rect x="160" y="120" width="20" height="80" fill="#e74c3c"/>
  <rect x="190" y="90" width="20" height="110" fill="#e74c3c"/>
  <rect x="220" y="80" width="20" height="120" fill="#e74c3c"/>
  <rect x="250" y="90" width="20" height="110" fill="#e74c3c"/>
  <rect x="280" y="110" width="20" height="90" fill="#e74c3c"/>
  <rect x="310" y="130" width="20" height="70" fill="#e74c3c"/>
  <rect x="340" y="150" width="20" height="50" fill="#e74c3c"/>
  <rect x="370" y="170" width="20" height="30" fill="#e74c3c"/>
  <rect x="400" y="185" width="20" height="15" fill="#e74c3c"/>
  <rect x="430" y="190" width="20" height="10" fill="#e74c3c"/>
  <rect x="460" y="188" width="20" height="12" fill="#e74c3c"/>
  <rect x="490" y="186" width="20" height="14" fill="#e74c3c"/>
  <rect x="520" y="180" width="20" height="20" fill="#e74c3c"/>
  <rect x="550" y="172" width="20" height="28" fill="#e74c3c"/>
  <rect x="580" y="168" width="20" height="32" fill="#e74c3c"/>
  <rect x="610" y="165" width="20" height="35" fill="#e74c3c"/>
</svg>

