<svg xmlns="http://www.w3.org/2000/svg" width="640" height="220">
  <rect width="100%" height="100%" fill="#0f0f14"/>
  <g font-family="monospace" font-size="12" fill="#e8e8e8">
    <text x="20" y="28">Queues (name | depth | trend)</text>
    <!-- Header line -->
    <line x1="20" y1="36" x2="620" y2="36" stroke="#444"/>
    <!-- Row 1 -->
    <text x="24" y="60">high</text>
    <text x="220" y="60">128</text>
    <polyline fill="none" stroke="#27ae60" stroke-width="2" points="320,63 340,58 360,62 380,54 400,50 420,46 440,44 460,46 480,40"/>
    <!-- Row 2 -->
    <text x="24" y="88">low</text>
    <text x="220" y="88">64</text>
    <polyline fill="none" stroke="#f1c40f" stroke-width="2" points="320,91 340,92 360,88 380,92 400,95 420,92 440,96 460,98 480,100"/>
    <!-- Row 3 -->
    <text x="24" y="116">dead_letter</text>
    <text x="220" y="116">5</text>
    <polyline fill="none" stroke="#e74c3c" stroke-width="2" points="320,119 340,118 360,120 380,121 400,124 420,128 440,132 460,138 480,142"/>
  </g>
</svg>

