<svg xmlns="http://www.w3.org/2000/svg" width="720" height="360">
  <rect width="100%" height="100%" fill="#0f0f14"/>
  <!-- Main content placeholder -->
  <rect x="20" y="20" width="680" height="320" fill="#1d1f27" stroke="#444"/>
  <!-- Mini-map inset -->
  <rect x="520" y="36" width="160" height="100" fill="#101218" stroke="#7aa2f7"/>
  <!-- Heatmap cells -->
  <g>
    <rect x="526" y="42" width="20" height="20" fill="#1f6feb"/>
    <rect x="548" y="42" width="20" height="20" fill="#2ea043"/>
    <rect x="570" y="42" width="20" height="20" fill="#bb3e03"/>
    <rect x="592" y="42" width="20" height="20" fill="#238636"/>
    <rect x="614" y="42" width="20" height="20" fill="#9e6a03"/>
    <rect x="636" y="42" width="20" height="20" fill="#2ea043"/>
    <rect x="526" y="64" width="20" height="20" fill="#116329"/>
    <rect x="548" y="64" width="20" height="20" fill="#d29922"/>
    <rect x="570" y="64" width="20" height="20" fill="#f85149"/>
    <rect x="592" y="64" width="20" height="20" fill="#1f6feb"/>
    <rect x="614" y="64" width="20" height="20" fill="#2ea043"/>
    <rect x="636" y="64" width="20" height="20" fill="#bb3e03"/>
  </g>
  <!-- Viewport rectangle inside mini-map -->
  <rect x="548" y="64" width="40" height="40" fill="none" stroke="#e8e8e8" stroke-dasharray="4,3"/>
  <g font-family="monospace" font-size="12" fill="#e8e8e8">
    <text x="524" y="156">Mini‑map (click to navigate)</text>
  </g>
</svg>

