<svg viewBox="0 0 900 700" xmlns="http://www.w3.org/2000/svg">
  <!-- Background -->
  <rect width="900" height="700" fill="#1a1b26"/>

  <!-- Tab Bar -->
  <rect x="0" y="0" width="900" height="30" fill="#24283b" stroke="#414868" stroke-width="1"/>
  <text x="20" y="20" fill="#7aa2f7" font-family="monospace" font-size="12">Jobs</text>
  <text x="80" y="20" fill="#7aa2f7" font-family="monospace" font-size="12">Workers</text>
  <rect x="150" y="5" width="55" height="20" fill="#414868" rx="2"/>
  <text x="160" y="20" fill="#f7768e" font-family="monospace" font-size="12" font-weight="bold">✗ DLQ</text>
  <circle cx="195" cy="12" r="5" fill="#f7768e"/>
  <text x="191" y="16" fill="#1a1b26" font-family="monospace" font-size="9" font-weight="bold">7</text>
  <text x="220" y="20" fill="#7aa2f7" font-family="monospace" font-size="12">Settings</text>

  <!-- Header with stats -->
  <rect x="0" y="30" width="900" height="40" fill="#24283b"/>
  <text x="20" y="55" fill="#c0caf5" font-family="monospace" font-size="14" font-weight="bold">Dead Letter Queue</text>

  <!-- Live stats -->
  <text x="550" y="55" fill="#f7768e" font-family="monospace" font-size="11">⚠ 1,247 failed jobs</text>
  <text x="700" y="55" fill="#e0af68" font-family="monospace" font-size="11">↑ +47 last hour</text>
  <text x="820" y="55" fill="#565f89" font-family="monospace" font-size="11">↻ 5s</text>

  <!-- Control Bar -->
  <rect x="10" y="80" width="880" height="40" fill="#1a1b26" stroke="#414868" stroke-width="1" rx="4"/>

  <!-- Search/Filter -->
  <rect x="20" y="90" width="250" height="20" fill="#24283b" stroke="#414868" stroke-width="1" rx="2"/>
  <text x="25" y="103" fill="#565f89" font-family="monospace" font-size="10">Filter by error, type, time...</text>

  <!-- Quick filters -->
  <rect x="280" y="90" width="80" height="20" fill="#2a2e3f" rx="2"/>
  <text x="285" y="103" fill="#c0caf5" font-family="monospace" font-size="10">Last Hour</text>

  <rect x="370" y="90" width="80" height="20" fill="#2a2e3f" rx="2"/>
  <text x="375" y="103" fill="#c0caf5" font-family="monospace" font-size="10">Type: All</text>

  <rect x="460" y="90" width="90" height="20" fill="#2a2e3f" rx="2"/>
  <text x="465" y="103" fill="#c0caf5" font-family="monospace" font-size="10">Error: All</text>

  <!-- Bulk actions -->
  <rect x="650" y="90" width="70" height="20" fill="#3b4261" stroke="#9ece6a" stroke-width="1" rx="2"/>
  <text x="660" y="103" fill="#9ece6a" font-family="monospace" font-size="10">↻ Retry</text>

  <rect x="730" y="90" width="70" height="20" fill="#3b4261" stroke="#f7768e" stroke-width="1" rx="2"/>
  <text x="740" y="103" fill="#f7768e" font-family="monospace" font-size="10">✗ Purge</text>

  <rect x="810" y="90" width="70" height="20" fill="#3b4261" stroke="#bb9af7" stroke-width="1" rx="2"/>
  <text x="820" y="103" fill="#bb9af7" font-family="monospace" font-size="10">▊ Analyze</text>

  <!-- Main Layout: Two columns -->

  <!-- Left: Failed Jobs List (60%) -->
  <rect x="10" y="130" width="530" height="380" fill="#1a1b26" stroke="#414868" stroke-width="1" rx="4"/>

  <!-- List header -->
  <rect x="10" y="130" width="530" height="30" fill="#24283b" rx="4 4 0 0"/>
  <text x="20" y="148" fill="#7aa2f7" font-family="monospace" font-size="11" font-weight="bold">Failed Jobs (7 selected)</text>
  <text x="430" y="148" fill="#565f89" font-family="monospace" font-size="10">Page 1 of 125</text>

  <!-- Column headers -->
  <rect x="10" y="160" width="530" height="25" fill="#2a2e3f"/>
  <rect x="15" y="165" width="15" height="15" fill="#24283b" stroke="#414868" stroke-width="1" rx="2"/>
  <text x="18" y="176" fill="#7aa2f7" font-family="monospace" font-size="10">✓</text>
  <text x="40" y="176" fill="#565f89" font-family="monospace" font-size="10">ID</text>
  <text x="120" y="176" fill="#565f89" font-family="monospace" font-size="10">Type</text>
  <text x="250" y="176" fill="#565f89" font-family="monospace" font-size="10">Error</text>
  <text x="420" y="176" fill="#565f89" font-family="monospace" font-size="10">Failed At</text>
  <text x="490" y="176" fill="#565f89" font-family="monospace" font-size="10">Retries</text>

  <!-- Job rows -->
  <!-- Row 1 - selected -->
  <rect x="10" y="185" width="530" height="30" fill="#3b4261"/>
  <rect x="15" y="192" width="15" height="15" fill="#7aa2f7" rx="2"/>
  <text x="18" y="203" fill="#1a1b26" font-family="monospace" font-size="10" font-weight="bold">✓</text>
  <text x="40" y="203" fill="#c0caf5" font-family="monospace" font-size="10">job_98765</text>
  <text x="120" y="203" fill="#9ece6a" font-family="monospace" font-size="10">payment_process</text>
  <text x="250" y="203" fill="#f7768e" font-family="monospace" font-size="10">Connection timeout</text>
  <text x="420" y="203" fill="#565f89" font-family="monospace" font-size="10">2m ago</text>
  <text x="500" y="203" fill="#e0af68" font-family="monospace" font-size="10">3/3</text>

  <!-- Row 2 - selected -->
  <rect x="10" y="215" width="530" height="30" fill="#3b4261"/>
  <rect x="15" y="222" width="15" height="15" fill="#7aa2f7" rx="2"/>
  <text x="18" y="233" fill="#1a1b26" font-family="monospace" font-size="10" font-weight="bold">✓</text>
  <text x="40" y="233" fill="#c0caf5" font-family="monospace" font-size="10">job_98764</text>
  <text x="120" y="233" fill="#9ece6a" font-family="monospace" font-size="10">payment_process</text>
  <text x="250" y="233" fill="#f7768e" font-family="monospace" font-size="10">Connection timeout</text>
  <text x="420" y="233" fill="#565f89" font-family="monospace" font-size="10">3m ago</text>
  <text x="500" y="233" fill="#e0af68" font-family="monospace" font-size="10">3/3</text>

  <!-- Row 3 -->
  <rect x="10" y="245" width="530" height="30" fill="#2a2e3f"/>
  <rect x="15" y="252" width="15" height="15" fill="#24283b" stroke="#414868" stroke-width="1" rx="2"/>
  <text x="40" y="263" fill="#c0caf5" font-family="monospace" font-size="10">job_98763</text>
  <text x="120" y="263" fill="#7aa2f7" font-family="monospace" font-size="10">email_send</text>
  <text x="250" y="263" fill="#f7768e" font-family="monospace" font-size="10">Invalid recipient</text>
  <text x="420" y="263" fill="#565f89" font-family="monospace" font-size="10">5m ago</text>
  <text x="500" y="263" fill="#e0af68" font-family="monospace" font-size="10">3/3</text>

  <!-- Row 4 - selected -->
  <rect x="10" y="275" width="530" height="30" fill="#3b4261"/>
  <rect x="15" y="282" width="15" height="15" fill="#7aa2f7" rx="2"/>
  <text x="18" y="293" fill="#1a1b26" font-family="monospace" font-size="10" font-weight="bold">✓</text>
  <text x="40" y="293" fill="#c0caf5" font-family="monospace" font-size="10">job_98762</text>
  <text x="120" y="293" fill="#9ece6a" font-family="monospace" font-size="10">payment_process</text>
  <text x="250" y="293" fill="#f7768e" font-family="monospace" font-size="10">Connection timeout</text>
  <text x="420" y="293" fill="#565f89" font-family="monospace" font-size="10">8m ago</text>
  <text x="500" y="293" fill="#e0af68" font-family="monospace" font-size="10">3/3</text>

  <!-- More rows indicator -->
  <text x="250" y="350" fill="#565f89" font-family="monospace" font-size="10">... 1,240 more ...</text>

  <!-- Pagination controls -->
  <rect x="10" y="480" width="530" height="30" fill="#24283b" rx="0 0 4 4"/>
  <text x="20" y="498" fill="#565f89" font-family="monospace" font-size="10">Showing 1-10 of 1,247</text>

  <rect x="380" y="485" width="30" height="20" fill="#3b4261" rx="2"/>
  <text x="390" y="498" fill="#c0caf5" font-family="monospace" font-size="10">◀</text>

  <rect x="415" y="485" width="30" height="20" fill="#414868" rx="2"/>
  <text x="425" y="498" fill="#c0caf5" font-family="monospace" font-size="10" font-weight="bold">1</text>

  <rect x="450" y="485" width="30" height="20" fill="#3b4261" rx="2"/>
  <text x="460" y="498" fill="#c0caf5" font-family="monospace" font-size="10">2</text>

  <rect x="485" y="485" width="30" height="20" fill="#3b4261" rx="2"/>
  <text x="495" y="498" fill="#c0caf5" font-family="monospace" font-size="10">▶</text>

  <!-- Right: Details and Actions (40%) -->
  <rect x="550" y="130" width="340" height="380" fill="#1a1b26" stroke="#414868" stroke-width="1" rx="4"/>

  <!-- Pattern Analysis -->
  <rect x="550" y="130" width="340" height="30" fill="#24283b" rx="4 4 0 0"/>
  <text x="560" y="148" fill="#bb9af7" font-family="monospace" font-size="11" font-weight="bold">▊ Pattern Analysis</text>

  <rect x="555" y="165" width="330" height="100" fill="#24283b" rx="2"/>

  <!-- Pattern insights -->
  <text x="560" y="180" fill="#f7768e" font-family="monospace" font-size="10">● Connection Timeout Cluster</text>
  <text x="560" y="195" fill="#c0caf5" font-family="monospace" font-size="9">847 failures (68%) - payment_process</text>
  <text x="560" y="208" fill="#565f89" font-family="monospace" font-size="9">Peak: 14:30-14:45 UTC</text>
  <text x="560" y="221" fill="#9ece6a" font-family="monospace" font-size="9">→ Likely cause: API gateway issue</text>

  <rect x="560" y="235" width="100" height="20" fill="#3b4261" stroke="#9ece6a" stroke-width="1" rx="2"/>
  <text x="575" y="248" fill="#9ece6a" font-family="monospace" font-size="9">Retry Group</text>

  <rect x="665" y="235" width="100" height="20" fill="#3b4261" stroke="#bb9af7" stroke-width="1" rx="2"/>
  <text x="680" y="248" fill="#bb9af7" font-family="monospace" font-size="9">View Details</text>

  <!-- Job Details -->
  <text x="560" y="285" fill="#7aa2f7" font-family="monospace" font-size="11" font-weight="bold">Job Details (7 selected)</text>

  <rect x="555" y="295" width="330" height="140" fill="#24283b" rx="2"/>

  <!-- Common properties -->
  <text x="560" y="310" fill="#565f89" font-family="monospace" font-size="9">Common Properties:</text>
  <text x="560" y="325" fill="#c0caf5" font-family="monospace" font-size="9">Type: payment_process (5/7)</text>
  <text x="560" y="340" fill="#c0caf5" font-family="monospace" font-size="9">Error: Connection timeout (5/7)</text>
  <text x="560" y="355" fill="#c0caf5" font-family="monospace" font-size="9">Queue: high_priority</text>
  <text x="560" y="370" fill="#c0caf5" font-family="monospace" font-size="9">Max Retries: 3</text>
  <text x="560" y="385" fill="#c0caf5" font-family="monospace" font-size="9">First Failed: 2h ago</text>
  <text x="560" y="400" fill="#c0caf5" font-family="monospace" font-size="9">Last Failed: 2m ago</text>

  <!-- Payload preview -->
  <text x="560" y="420" fill="#565f89" font-family="monospace" font-size="9">Payload Preview:</text>
  <text x="560" y="430" fill="#9ece6a" font-family="monospace" font-size="8">{"amount": 99.99, "user_id": "usr_..."}</text>

  <!-- Action buttons -->
  <text x="560" y="455" fill="#7aa2f7" font-family="monospace" font-size="11" font-weight="bold">Bulk Actions</text>

  <rect x="555" y="465" width="105" height="35" fill="#283745" stroke="#9ece6a" stroke-width="2" rx="3"/>
  <text x="575" y="487" fill="#9ece6a" font-family="monospace" font-size="11" font-weight="bold">↻ Retry All</text>

  <rect x="670" y="465" width="105" height="35" fill="#3b4261" stroke="#bb9af7" stroke-width="1" rx="3"/>
  <text x="685" y="487" fill="#bb9af7" font-family="monospace" font-size="11">✎ Edit + Retry</text>

  <rect x="780" y="465" width="105" height="35" fill="#3d2c2c" stroke="#f7768e" stroke-width="1" rx="3"/>
  <text x="810" y="487" fill="#f7768e" font-family="monospace" font-size="11">✗ Purge</text>

  <!-- Bottom Panel: Error Timeline -->
  <rect x="10" y="520" width="880" height="130" fill="#1a1b26" stroke="#414868" stroke-width="1" rx="4"/>
  <text x="20" y="540" fill="#7aa2f7" font-family="monospace" font-size="11" font-weight="bold">Error Timeline (Last 24h)</text>

  <!-- Timeline graph -->
  <rect x="20" y="550" width="860" height="70" fill="#24283b" rx="2"/>

  <!-- Hour markers -->
  <text x="30" y="615" fill="#565f89" font-family="monospace" font-size="8">00:00</text>
  <text x="230" y="615" fill="#565f89" font-family="monospace" font-size="8">06:00</text>
  <text x="430" y="615" fill="#565f89" font-family="monospace" font-size="8">12:00</text>
  <text x="630" y="615" fill="#565f89" font-family="monospace" font-size="8">18:00</text>
  <text x="830" y="615" fill="#565f89" font-family="monospace" font-size="8">24:00</text>

  <!-- Error bars -->
  <rect x="40" y="595" width="10" height="10" fill="#9ece6a" opacity="0.8"/>
  <rect x="60" y="590" width="10" height="15" fill="#9ece6a" opacity="0.8"/>
  <rect x="80" y="585" width="10" height="20" fill="#9ece6a" opacity="0.8"/>
  <rect x="100" y="590" width="10" height="15" fill="#9ece6a" opacity="0.8"/>

  <!-- Spike at 14:30 -->
  <rect x="580" y="560" width="10" height="45" fill="#f7768e" opacity="0.8"/>
  <rect x="595" y="555" width="10" height="50" fill="#f7768e" opacity="0.8"/>
  <rect x="610" y="558" width="10" height="47" fill="#f7768e" opacity="0.8"/>
  <rect x="625" y="565" width="10" height="40" fill="#f7768e" opacity="0.8"/>

  <!-- Recent errors -->
  <rect x="820" y="580" width="10" height="25" fill="#e0af68" opacity="0.8"/>
  <rect x="835" y="575" width="10" height="30" fill="#e0af68" opacity="0.8"/>
  <rect x="850" y="570" width="10" height="35" fill="#f7768e" opacity="0.8"/>

  <!-- Legend -->
  <rect x="20" y="625" width="10" height="10" fill="#9ece6a"/>
  <text x="35" y="633" fill="#565f89" font-family="monospace" font-size="8">Normal (less than 10/h)</text>

  <rect x="170" y="625" width="10" height="10" fill="#e0af68"/>
  <text x="185" y="633" fill="#565f89" font-family="monospace" font-size="8">Elevated (10-50/h)</text>

  <rect x="310" y="625" width="10" height="10" fill="#f7768e"/>
  <text x="325" y="633" fill="#565f89" font-family="monospace" font-size="8">Critical (greater than 50/h)</text>

  <!-- Status Bar -->
  <rect x="0" y="660" width="900" height="40" fill="#24283b" stroke="#414868" stroke-width="1"/>
  <text x="20" y="680" fill="#565f89" font-family="monospace" font-size="10">DLQ | 1,247 items | 7 selected</text>
  <text x="400" y="680" fill="#e0af68" font-family="monospace" font-size="10">⚠ Auto-refresh paused with selection</text>
  <text x="700" y="680" fill="#565f89" font-family="monospace" font-size="10">Press ? for help | ESC to clear</text>
</svg>