<svg viewBox="0 0 1200 800" xmlns="http://www.w3.org/2000/svg">
  <!-- Main Background -->
  <rect width="1200" height="800" fill="#0d1117"/>

  <!-- Header -->
  <rect x="0" y="0" width="1200" height="60" fill="#161b22" stroke="#30363d"/>
  <text x="20" y="35" fill="#f0f6fc" font-family="JetBrains Mono, monospace" font-size="18" font-weight="bold">Forecasting Dashboard - Queue Capacity Prediction</text>
  <text x="1050" y="35" fill="#8b949e" font-family="JetBrains Mono, monospace" font-size="12">2024-01-15 14:30</text>

  <!-- Navigation Tabs -->
  <rect x="20" y="75" width="100" fill="#30363d" height="30" rx="4"/>
  <text x="70" y="95" fill="#f0f6fc" font-family="JetBrains Mono, monospace" font-size="12" text-anchor="middle">Jobs</text>

  <rect x="130" y="75" width="100" fill="#238636" height="30" rx="4"/>
  <text x="180" y="95" fill="#f0f6fc" font-family="JetBrains Mono, monospace" font-size="12" text-anchor="middle">Forecast</text>

  <rect x="240" y="75" width="100" fill="#30363d" height="30" rx="4"/>
  <text x="290" y="95" fill="#f0f6fc" font-family="JetBrains Mono, monospace" font-size="12" text-anchor="middle">Workers</text>

  <!-- Main Content Area -->
  <!-- Left Panel: Current Metrics -->
  <rect x="20" y="120" width="380" height="660" fill="#161b22" stroke="#30363d"/>
  <text x="30" y="145" fill="#f0f6fc" font-family="JetBrains Mono, monospace" font-size="14" font-weight="bold">Current Status</text>

  <!-- Queue Metrics Cards -->
  <rect x="30" y="160" width="110" height="80" fill="#0d1117" stroke="#30363d" rx="4"/>
  <text x="35" y="180" fill="#8b949e" font-family="JetBrains Mono, monospace" font-size="10">BACKLOG</text>
  <text x="35" y="200" fill="#f85149" font-family="JetBrains Mono, monospace" font-size="20" font-weight="bold">1,247</text>
  <text x="35" y="220" fill="#8b949e" font-family="JetBrains Mono, monospace" font-size="10">+23% vs 1h ago</text>

  <rect x="150" y="160" width="110" height="80" fill="#0d1117" stroke="#30363d" rx="4"/>
  <text x="155" y="180" fill="#8b949e" font-family="JetBrains Mono, monospace" font-size="10">THROUGHPUT</text>
  <text x="155" y="200" fill="#39d353" font-family="JetBrains Mono, monospace" font-size="20" font-weight="bold">342/min</text>
  <text x="155" y="220" fill="#8b949e" font-family="JetBrains Mono, monospace" font-size="10">-5% vs 1h ago</text>

  <rect x="270" y="160" width="110" height="80" fill="#0d1117" stroke="#30363d" rx="4"/>
  <text x="275" y="180" fill="#8b949e" font-family="JetBrains Mono, monospace" font-size="10">ERROR RATE</text>
  <text x="275" y="200" fill="#ffa657" font-family="JetBrains Mono, monospace" font-size="20" font-weight="bold">2.3%</text>
  <text x="275" y="220" fill="#8b949e" font-family="JetBrains Mono, monospace" font-size="10">+0.5% vs 1h ago</text>

  <!-- Forecast Models Section -->
  <text x="30" y="270" fill="#f0f6fc" font-family="JetBrains Mono, monospace" font-size="14" font-weight="bold">Prediction Models</text>

  <rect x="30" y="285" width="360" height="180" fill="#0d1117" stroke="#30363d" rx="4"/>

  <!-- EWMA Model -->
  <circle cx="45" cy="305" r="5" fill="#39d353"/>
  <text x="60" y="310" fill="#f0f6fc" font-family="JetBrains Mono, monospace" font-size="12">EWMA (α=0.3)</text>
  <text x="320" y="310" fill="#39d353" font-family="JetBrains Mono, monospace" font-size="12">Active</text>
  <text x="60" y="325" fill="#8b949e" font-family="JetBrains Mono, monospace" font-size="10">Exponential weighted moving avg</text>
  <text x="60" y="340" fill="#8b949e" font-family="JetBrains Mono, monospace" font-size="10">MAE: 23.4, RMSE: 45.2</text>

  <!-- Holt-Winters Model -->
  <circle cx="45" cy="355" r="5" fill="#58a6ff"/>
  <text x="60" y="360" fill="#f0f6fc" font-family="JetBrains Mono, monospace" font-size="12">Holt-Winters</text>
  <text x="300" y="360" fill="#58a6ff" font-family="JetBrains Mono, monospace" font-size="12">Standby</text>
  <text x="60" y="375" fill="#8b949e" font-family="JetBrains Mono, monospace" font-size="10">Seasonal trend decomposition</text>
  <text x="60" y="390" fill="#8b949e" font-family="JetBrains Mono, monospace" font-size="10">MAE: 19.8, RMSE: 38.6</text>

  <!-- ARIMA Model -->
  <circle cx="45" cy="405" r="5" fill="#8b949e"/>
  <text x="60" y="410" fill="#f0f6fc" font-family="JetBrains Mono, monospace" font-size="12">ARIMA (1,1,1)</text>
  <text x="300" y="410" fill="#8b949e" font-family="JetBrains Mono, monospace" font-size="12">Training</text>
  <text x="60" y="425" fill="#8b949e" font-family="JetBrains Mono, monospace" font-size="10">Auto-regressive integrated MA</text>
  <text x="60" y="440" fill="#8b949e" font-family="JetBrains Mono, monospace" font-size="10">Convergence: 87%</text>

  <!-- Recommendations Panel -->
  <text x="30" y="490" fill="#f0f6fc" font-family="JetBrains Mono, monospace" font-size="14" font-weight="bold">Recommendations</text>

  <rect x="30" y="505" width="360" height="260" fill="#0d1117" stroke="#ffa657" rx="4"/>

  <!-- Recommendation Items -->
  <rect x="40" y="520" width="340" height="50" fill="#1f2937" stroke="#ffa657" rx="4"/>
  <circle cx="55" cy="535" r="3" fill="#ffa657"/>
  <text x="70" y="535" fill="#ffa657" font-family="JetBrains Mono, monospace" font-size="12" font-weight="bold">HIGH PRIORITY</text>
  <text x="70" y="550" fill="#f0f6fc" font-family="JetBrains Mono, monospace" font-size="11">Scale workers +3 in next 15 min</text>
  <text x="70" y="565" fill="#8b949e" font-family="JetBrains Mono, monospace" font-size="10">Predicted backlog spike to 2,100 jobs</text>

  <rect x="40" y="580" width="340" height="50" fill="#1f2937" stroke="#58a6ff" rx="4"/>
  <circle cx="55" cy="595" r="3" fill="#58a6ff"/>
  <text x="70" y="595" fill="#58a6ff" font-family="JetBrains Mono, monospace" font-size="12" font-weight="bold">CAPACITY PLANNING</text>
  <text x="70" y="610" fill="#f0f6fc" font-family="JetBrains Mono, monospace" font-size="11">Prepare for 6pm traffic surge</text>
  <text x="70" y="625" fill="#8b949e" font-family="JetBrains Mono, monospace" font-size="10">Daily pattern suggests 4x load increase</text>

  <rect x="40" y="640" width="340" height="50" fill="#1f2937" stroke="#39d353" rx="4"/>
  <circle cx="55" cy="655" r="3" fill="#39d353"/>
  <text x="70" y="655" fill="#39d353" font-family="JetBrains Mono, monospace" font-size="12" font-weight="bold">SLO BUDGET</text>
  <text x="70" y="670" fill="#f0f6fc" font-family="JetBrains Mono, monospace" font-size="11">87% budget remaining this week</text>
  <text x="70" y="685" fill="#8b949e" font-family="JetBrains Mono, monospace" font-size="10">Error rate trending down, safe margin</text>

  <rect x="40" y="700" width="340" height="50" fill="#1f2937" stroke="#8b949e" rx="4"/>
  <circle cx="55" cy="715" r="3" fill="#8b949e"/>
  <text x="70" y="715" fill="#8b949e" font-family="JetBrains Mono, monospace" font-size="12" font-weight="bold">MAINTENANCE WINDOW</text>
  <text x="70" y="730" fill="#f0f6fc" font-family="JetBrains Mono, monospace" font-size="11">Optimal window: 2-4am EST</text>
  <text x="70" y="745" fill="#8b949e" font-family="JetBrains Mono, monospace" font-size="10">Predicted minimum load period</text>

  <!-- Right Panel: Forecast Charts -->
  <rect x="420" y="120" width="760" height="660" fill="#161b22" stroke="#30363d"/>

  <!-- Chart Header -->
  <text x="430" y="145" fill="#f0f6fc" font-family="JetBrains Mono, monospace" font-size="14" font-weight="bold">Forecast Timeline</text>

  <!-- Time Range Selector -->
  <rect x="1050" y="125" width="120" height="25" fill="#30363d" rx="4"/>
  <text x="1110" y="142" fill="#f0f6fc" font-family="JetBrains Mono, monospace" font-size="11" text-anchor="middle">Next 2 Hours</text>

  <!-- Main Chart Area -->
  <rect x="440" y="170" width="720" height="280" fill="#0d1117" stroke="#30363d"/>

  <!-- Chart Grid Lines -->
  <g stroke="#30363d" stroke-width="1" opacity="0.3">
    <line x1="440" y1="210" x2="1160" y2="210"/>
    <line x1="440" y1="250" x2="1160" y2="250"/>
    <line x1="440" y1="290" x2="1160" y2="290"/>
    <line x1="440" y1="330" x2="1160" y2="330"/>
    <line x1="440" y1="370" x2="1160" y2="370"/>
    <line x1="440" y1="410" x2="1160" y2="410"/>

    <line x1="530" y1="170" x2="530" y2="450"/>
    <line x1="620" y1="170" x2="620" y2="450"/>
    <line x1="710" y1="170" x2="710" y2="450"/>
    <line x1="800" y1="170" x2="800" y2="450"/>
    <line x1="890" y1="170" x2="890" y2="450"/>
    <line x1="980" y1="170" x2="980" y2="450"/>
    <line x1="1070" y1="170" x2="1070" y2="450"/>
  </g>

  <!-- Y-axis Labels -->
  <text x="430" y="415" fill="#8b949e" font-family="JetBrains Mono, monospace" font-size="10" text-anchor="end">0</text>
  <text x="430" y="375" fill="#8b949e" font-family="JetBrains Mono, monospace" font-size="10" text-anchor="end">500</text>
  <text x="430" y="335" fill="#8b949e" font-family="JetBrains Mono, monospace" font-size="10" text-anchor="end">1000</text>
  <text x="430" y="295" fill="#8b949e" font-family="JetBrains Mono, monospace" font-size="10" text-anchor="end">1500</text>
  <text x="430" y="255" fill="#8b949e" font-family="JetBrains Mono, monospace" font-size="10" text-anchor="end">2000</text>
  <text x="430" y="215" fill="#8b949e" font-family="JetBrains Mono, monospace" font-size="10" text-anchor="end">2500</text>
  <text x="430" y="175" fill="#8b949e" font-family="JetBrains Mono, monospace" font-size="10" text-anchor="end">3000</text>

  <!-- X-axis Labels -->
  <text x="440" y="465" fill="#8b949e" font-family="JetBrains Mono, monospace" font-size="10" text-anchor="middle">Now</text>
  <text x="620" y="465" fill="#8b949e" font-family="JetBrains Mono, monospace" font-size="10" text-anchor="middle">+30m</text>
  <text x="800" y="465" fill="#8b949e" font-family="JetBrains Mono, monospace" font-size="10" text-anchor="middle">+60m</text>
  <text x="980" y="465" fill="#8b949e" font-family="JetBrains Mono, monospace" font-size="10" text-anchor="middle">+90m</text>
  <text x="1160" y="465" fill="#8b949e" font-family="JetBrains Mono, monospace" font-size="10" text-anchor="middle">+120m</text>

  <!-- Current Position Line -->
  <line x1="440" y1="170" x2="440" y2="450" stroke="#58a6ff" stroke-width="2"/>
  <text x="450" y="185" fill="#58a6ff" font-family="JetBrains Mono, monospace" font-size="10">NOW</text>

  <!-- Historical Data Line -->
  <polyline points="350,390 380,370 410,380 440,350" fill="none" stroke="#8b949e" stroke-width="2" opacity="0.6"/>

  <!-- Prediction Line -->
  <polyline points="440,350 520,320 620,280 720,260 820,290 920,340 1020,380 1120,420" fill="none" stroke="#39d353" stroke-width="3"/>

  <!-- Confidence Band -->
  <polygon points="440,320 520,290 620,250 720,230 820,260 920,310 1020,350 1120,390 1120,450 1020,410 920,370 820,320 720,290 620,310 520,350 440,380" fill="#39d353" opacity="0.2"/>

  <!-- Upper Confidence Band -->
  <polyline points="440,320 520,290 620,250 720,230 820,260 920,310 1020,350 1120,390" fill="none" stroke="#39d353" stroke-width="1" stroke-dasharray="3,3" opacity="0.8"/>

  <!-- Lower Confidence Band -->
  <polyline points="440,380 520,350 620,310 720,290 820,320 920,370 1020,410 1120,450" fill="none" stroke="#39d353" stroke-width="1" stroke-dasharray="3,3" opacity="0.8"/>

  <!-- Threshold Lines -->
  <line x1="440" y1="250" x2="1160" y2="250" stroke="#f85149" stroke-width="2" stroke-dasharray="5,5" opacity="0.7"/>
  <text x="1000" y="245" fill="#f85149" font-family="JetBrains Mono, monospace" font-size="10">Critical Threshold</text>

  <line x1="440" y1="290" x2="1160" y2="290" stroke="#ffa657" stroke-width="2" stroke-dasharray="5,5" opacity="0.7"/>
  <text x="1000" y="285" fill="#ffa657" font-family="JetBrains Mono, monospace" font-size="10">Warning Threshold</text>

  <!-- Legend -->
  <rect x="450" y="475" width="700" height="40" fill="#0d1117" stroke="#30363d" rx="4"/>

  <line x1="460" y1="490" x2="480" y2="490" stroke="#39d353" stroke-width="3"/>
  <text x="490" y="495" fill="#f0f6fc" font-family="JetBrains Mono, monospace" font-size="10">Forecast (EWMA)</text>

  <polygon points="560,485 570,485 575,490 570,495 560,495" fill="#39d353" opacity="0.2"/>
  <text x="580" y="495" fill="#f0f6fc" font-family="JetBrains Mono, monospace" font-size="10">95% Confidence</text>

  <line x1="690" y1="490" x2="710" y2="490" stroke="#f85149" stroke-width="2" stroke-dasharray="3,3"/>
  <text x="720" y="495" fill="#f0f6fc" font-family="JetBrains Mono, monospace" font-size="10">Critical Level</text>

  <line x1="840" y1="490" x2="860" y2="490" stroke="#58a6ff" stroke-width="2"/>
  <text x="870" y="495" fill="#f0f6fc" font-family="JetBrains Mono, monospace" font-size="10">Current</text>

  <!-- Secondary Chart: Throughput Forecast -->
  <text x="430" y="545" fill="#f0f6fc" font-family="JetBrains Mono, monospace" font-size="14" font-weight="bold">Throughput Prediction</text>

  <rect x="440" y="560" width="720" height="200" fill="#0d1117" stroke="#30363d"/>

  <!-- Throughput Chart -->
  <g stroke="#30363d" stroke-width="1" opacity="0.3">
    <line x1="440" y1="600" x2="1160" y2="600"/>
    <line x1="440" y1="640" x2="1160" y2="640"/>
    <line x1="440" y1="680" x2="1160" y2="680"/>
    <line x1="440" y1="720" x2="1160" y2="720"/>
  </g>

  <text x="430" y="765" fill="#8b949e" font-family="JetBrains Mono, monospace" font-size="10" text-anchor="end">0</text>
  <text x="430" y="725" fill="#8b949e" font-family="JetBrains Mono, monospace" font-size="10" text-anchor="end">200</text>
  <text x="430" y="685" fill="#8b949e" font-family="JetBrains Mono, monospace" font-size="10" text-anchor="end">400</text>
  <text x="430" y="645" fill="#8b949e" font-family="JetBrains Mono, monospace" font-size="10" text-anchor="end">600</text>
  <text x="430" y="605" fill="#8b949e" font-family="JetBrains Mono, monospace" font-size="10" text-anchor="end">800</text>

  <!-- Current Position -->
  <line x1="440" y1="560" x2="440" y2="760" stroke="#58a6ff" stroke-width="2"/>

  <!-- Throughput Forecast -->
  <polyline points="440,680 520,670 620,660 720,650 820,645 920,640 1020,635 1120,630" fill="none" stroke="#58a6ff" stroke-width="3"/>

  <!-- Throughput Confidence Band -->
  <polygon points="440,670 520,660 620,650 720,640 820,635 920,630 1020,625 1120,620 1120,640 1020,645 920,650 820,655 720,660 620,670 520,680 440,690" fill="#58a6ff" opacity="0.2"/>

  <!-- Status bar at bottom -->
  <rect x="0" y="780" width="1200" height="20" fill="#0d1117" stroke="#30363d"/>
  <text x="10" y="795" fill="#8b949e" font-family="JetBrains Mono, monospace" font-size="10">Press F for forecast settings | H for help | ESC to exit</text>
  <text x="1100" y="795" fill="#8b949e" font-family="JetBrains Mono, monospace" font-size="10">CPU: 12%</text>
</svg>