<svg width="400" height="800" xmlns="http://www.w3.org/2000/svg">
  <!-- Background -->
  <rect width="400" height="800" fill="#0d1117"/>

  <!-- Title Bar -->
  <rect x="0" y="0" width="400" height="50" fill="#161b22" stroke="#30363d" stroke-width="1"/>
  <text x="10" y="30" font-family="Monaco, Courier" font-size="14" fill="#f0f6fc">📦 Archives</text>
  <text x="340" y="30" font-family="Monaco, Courier" font-size="10" fill="#8b949e">Ctrl+H</text>

  <!-- Tab Bar -->
  <rect x="0" y="50" width="400" height="35" fill="#161b22" stroke="#30363d" stroke-width="1"/>
  <rect x="5" y="55" width="80" height="25" fill="#58a6ff" stroke="#58a6ff" stroke-width="1" rx="3"/>
  <text x="25" y="70" font-family="Monaco, Courier" font-size="9" fill="#fff">Status</text>

  <rect x="90" y="55" width="80" height="25" fill="#30363d" stroke="#30363d" stroke-width="1" rx="3"/>
  <text x="115" y="70" font-family="Monaco, Courier" font-size="9" fill="#f0f6fc">Query</text>

  <rect x="175" y="55" width="80" height="25" fill="#30363d" stroke="#30363d" stroke-width="1" rx="3"/>
  <text x="195" y="70" font-family="Monaco, Courier" font-size="9" fill="#f0f6fc">Config</text>

  <rect x="260" y="55" width="80" height="25" fill="#30363d" stroke="#30363d" stroke-width="1" rx="3"/>
  <text x="280" y="70" font-family="Monaco, Courier" font-size="9" fill="#f0f6fc">Schema</text>

  <!-- Status Tab Content -->
  <rect x="10" y="95" width="380" height="680" fill="#161b22" stroke="#30363d" stroke-width="1"/>

  <!-- Export Status Card -->
  <text x="20" y="115" font-family="Monaco, Courier" font-size="11" fill="#58a6ff" font-weight="bold">Export Status</text>
  <rect x="20" y="125" width="360" height="80" fill="#0d1117" stroke="#30363d" stroke-width="1" rx="4"/>

  <circle cx="35" cy="145" r="4" fill="#39d353"/>
  <text x="50" y="150" font-family="Monaco, Courier" font-size="10" fill="#39d353">Exporter Running</text>

  <text x="25" y="170" font-family="Monaco, Courier" font-size="9" fill="#f0f6fc">Last batch: 2m ago (500 jobs)</text>
  <text x="25" y="185" font-family="Monaco, Courier" font-size="9" fill="#f0f6fc">Rate: 250 jobs/s | Lag: 12.5s</text>
  <text x="25" y="195" font-family="Monaco, Courier" font-size="9" fill="#8b949e">Backend: ClickHouse</text>

  <!-- Storage Metrics -->
  <text x="20" y="230" font-family="Monaco, Courier" font-size="11" fill="#58a6ff" font-weight="bold">Storage Metrics</text>
  <rect x="20" y="240" width="360" height="120" fill="#0d1117" stroke="#30363d" stroke-width="1" rx="4"/>

  <text x="25" y="260" font-family="Monaco, Courier" font-size="9" fill="#8b949e">Redis (Hot Data):</text>
  <text x="25" y="275" font-family="Monaco, Courier" font-size="10" fill="#f0f6fc">450GB / 2TB</text>
  <rect x="25" y="280" width="340" height="8" fill="#30363d" rx="4"/>
  <rect x="25" y="280" width="76" height="8" fill="#ffa657" rx="4"/>
  <text x="320" y="287" font-family="Monaco, Courier" font-size="8" fill="#8b949e">22%</text>

  <text x="25" y="305" font-family="Monaco, Courier" font-size="9" fill="#8b949e">ClickHouse (Archive):</text>
  <text x="25" y="320" font-family="Monaco, Courier" font-size="10" fill="#f0f6fc">2.1TB / 10TB</text>
  <rect x="25" y="325" width="340" height="8" fill="#30363d" rx="4"/>
  <rect x="25" y="325" width="71" height="8" fill="#39d353" rx="4"/>
  <text x="320" y="332" font-family="Monaco, Courier" font-size="8" fill="#8b949e">21%</text>

  <text x="25" y="350" font-family="Monaco, Courier" font-size="9" fill="#8b949e">Retention: 90d Redis → 5y Archive</text>

  <!-- Recent Activity -->
  <text x="20" y="385" font-family="Monaco, Courier" font-size="11" fill="#58a6ff" font-weight="bold">Recent Activity</text>
  <rect x="20" y="395" width="360" height="200" fill="#0d1117" stroke="#30363d" stroke-width="1" rx="4"/>

  <!-- Activity items -->
  <text x="25" y="415" font-family="Monaco, Courier" font-size="8" fill="#8b949e">Time     Count   Status</text>
  <text x="25" y="430" font-family="Monaco, Courier" font-size="8" fill="#39d353">14:28:45  500     SUCCESS</text>
  <text x="25" y="445" font-family="Monaco, Courier" font-size="8" fill="#39d353">14:26:30  425     SUCCESS</text>
  <text x="25" y="460" font-family="Monaco, Courier" font-size="8" fill="#39d353">14:24:15  380     SUCCESS</text>
  <text x="25" y="475" font-family="Monaco, Courier" font-size="8" fill="#ffa657">14:22:00  290     RETRY</text>
  <text x="25" y="490" font-family="Monaco, Courier" font-size="8" fill="#39d353">14:20:45  445     SUCCESS</text>
  <text x="25" y="505" font-family="Monaco, Courier" font-size="8" fill="#39d353">14:18:30  320     SUCCESS</text>
  <text x="25" y="520" font-family="Monaco, Courier" font-size="8" fill="#39d353">14:16:15  275     SUCCESS</text>
  <text x="25" y="535" font-family="Monaco, Courier" font-size="8" fill="#39d353">14:14:00  310     SUCCESS</text>
  <text x="25" y="550" font-family="Monaco, Courier" font-size="8" fill="#39d353">14:11:45  295     SUCCESS</text>
  <text x="25" y="565" font-family="Monaco, Courier" font-size="8" fill="#39d353">14:09:30  340     SUCCESS</text>
  <text x="25" y="580" font-family="Monaco, Courier" font-size="8" fill="#39d353">14:07:15  285     SUCCESS</text>

  <!-- Quick Stats -->
  <text x="20" y="620" font-family="Monaco, Courier" font-size="11" fill="#58a6ff" font-weight="bold">Quick Stats (24h)</text>
  <rect x="20" y="630" width="360" height="80" fill="#0d1117" stroke="#30363d" stroke-width="1" rx="4"/>

  <text x="25" y="650" font-family="Monaco, Courier" font-size="9" fill="#f0f6fc">Total Jobs: 1.2M</text>
  <text x="180" y="650" font-family="Monaco, Courier" font-size="9" fill="#39d353">Success: 96.8%</text>
  <text x="25" y="665" font-family="Monaco, Courier" font-size="9" fill="#f0f6fc">Avg Rate: 208 j/s</text>
  <text x="180" y="665" font-family="Monaco, Courier" font-size="9" fill="#f85149">Failed: 3.2%</text>
  <text x="25" y="680" font-family="Monaco, Courier" font-size="9" fill="#f0f6fc">Peak Rate: 445 j/s</text>
  <text x="180" y="680" font-family="Monaco, Courier" font-size="9" fill="#ffa657">Retries: 8.1%</text>
  <text x="25" y="695" font-family="Monaco, Courier" font-size="9" fill="#8b949e">Schema: v1.2</text>
  <text x="180" y="695" font-family="Monaco, Courier" font-size="9" fill="#8b949e">Cleanup: 6d</text>

  <!-- Action Buttons -->
  <rect x="20" y="720" width="80" height="25" fill="#238636" stroke="#238636" stroke-width="1" rx="3"/>
  <text x="45" y="737" font-family="Monaco, Courier" font-size="9" fill="#fff">Export</text>

  <rect x="110" y="720" width="80" height="25" fill="#30363d" stroke="#30363d" stroke-width="1" rx="3"/>
  <text x="130" y="737" font-family="Monaco, Courier" font-size="9" fill="#f0f6fc">Cleanup</text>

  <rect x="200" y="720" width="80" height="25" fill="#58a6ff" stroke="#58a6ff" stroke-width="1" rx="3"/>
  <text x="225" y="737" font-family="Monaco, Courier" font-size="9" fill="#fff">Query</text>

  <rect x="290" y="720" width="80" height="25" fill="#30363d" stroke="#30363d" stroke-width="1" rx="3"/>
  <text x="315" y="737" font-family="Monaco, Courier" font-size="9" fill="#f0f6fc">Config</text>

  <!-- Footer -->
  <rect x="0" y="760" width="400" height="40" fill="#161b22" stroke="#30363d" stroke-width="1"/>
  <text x="10" y="785" font-family="Monaco, Courier" font-size="9" fill="#58a6ff">ESC: Back | ?: Help | Tab: Switch</text>
</svg>