<svg width="1200" height="800" viewBox="0 0 1200 800" xmlns="http://www.w3.org/2000/svg">
  <!-- Background -->
  <rect width="1200" height="800" fill="#0d1117"/>

  <!-- Title Bar -->
  <rect x="0" y="0" width="1200" height="40" fill="#161b22" stroke="#30363d" stroke-width="1"/>
  <text x="20" y="28" fill="#f0f6fc" font-family="Monaco, monospace" font-size="14" font-weight="bold">Smart Retry Strategies Dashboard</text>
  <text x="1000" y="28" fill="#8b949e" font-family="Monaco, monospace" font-size="12">Ctrl+? Help</text>

  <!-- Left Panel: Strategy Configuration -->
  <rect x="10" y="50" width="380" height="740" fill="#161b22" stroke="#30363d" stroke-width="1" rx="4"/>
  <text x="25" y="75" fill="#f0f6fc" font-family="Monaco, monospace" font-size="16" font-weight="bold">🎯 Strategy Configuration</text>

  <!-- Strategy Selector -->
  <rect x="25" y="90" width="350" height="30" fill="#0d1117" stroke="#30363d" stroke-width="1" rx="3"/>
  <text x="35" y="110" fill="#f0f6fc" font-family="Monaco, monospace" font-size="12">Strategy:</text>
  <rect x="285" y="95" width="80" height="20" fill="#58a6ff" rx="2"/>
  <text x="300" y="108" fill="#0d1117" font-family="Monaco, monospace" font-size="10" font-weight="bold">Bayesian</text>

  <!-- Algorithm Settings -->
  <text x="25" y="140" fill="#8b949e" font-family="Monaco, monospace" font-size="11">ALGORITHM PARAMETERS</text>
  <rect x="25" y="150" width="350" height="120" fill="#0d1117" stroke="#30363d" stroke-width="1" rx="3"/>

  <text x="35" y="170" fill="#f0f6fc" font-family="Monaco, monospace" font-size="11">Base Backoff: 1s → 60s</text>
  <rect x="35" y="175" width="300" height="6" fill="#30363d" rx="3"/>
  <rect x="35" y="175" width="180" height="6" fill="#58a6ff" rx="3"/>

  <text x="35" y="195" fill="#f0f6fc" font-family="Monaco, monospace" font-size="11">Jitter Factor: 0.1 (±10%)</text>
  <rect x="35" y="200" width="300" height="6" fill="#30363d" rx="3"/>
  <rect x="35" y="200" width="30" height="6" fill="#39d353" rx="3"/>

  <text x="35" y="220" fill="#f0f6fc" font-family="Monaco, monospace" font-size="11">Max Attempts: 5</text>
  <text x="35" y="245" fill="#f0f6fc" font-family="Monaco, monospace" font-size="11">Success Threshold: 75%</text>
  <text x="35" y="260" fill="#39d353" font-family="Monaco, monospace" font-size="10">✓ Confidence: High (β=0.95)</text>

  <!-- Historical Performance -->
  <text x="25" y="290" fill="#8b949e" font-family="Monaco, monospace" font-size="11">HISTORICAL PERFORMANCE</text>
  <rect x="25" y="300" width="350" height="160" fill="#0d1117" stroke="#30363d" stroke-width="1" rx="3"/>

  <!-- Mini Success Rate Chart -->
  <text x="35" y="320" fill="#f0f6fc" font-family="Monaco, monospace" font-size="11">Success Rate by Error Type</text>
  <rect x="35" y="325" width="320" height="80" fill="#1f2937" rx="2"/>

  <!-- Error type bars -->
  <rect x="45" y="335" width="80" height="10" fill="#f85149"/>
  <text x="45" y="350" fill="#8b949e" font-family="Monaco, monospace" font-size="9">Timeout: 45%</text>

  <rect x="45" y="355" width="120" height="10" fill="#ffa657"/>
  <text x="45" y="370" fill="#8b949e" font-family="Monaco, monospace" font-size="9">Rate Limit: 68%</text>

  <rect x="45" y="375" width="160" height="10" fill="#39d353"/>
  <text x="45" y="390" fill="#8b949e" font-family="Monaco, monospace" font-size="9">Conn Error: 82%</text>

  <!-- Queue-Specific Rules -->
  <text x="35" y="415" fill="#f0f6fc" font-family="Monaco, monospace" font-size="11">Active Rules</text>
  <text x="35" y="430" fill="#39d353" font-family="Monaco, monospace" font-size="10">✓ payment-queue: Exp backoff</text>
  <text x="35" y="445" fill="#ffa657" font-family="Monaco, monospace" font-size="10">⚠ email-queue: High retry rate</text>

  <!-- Model Training Status -->
  <text x="25" y="480" fill="#8b949e" font-family="Monaco, monospace" font-size="11">ML MODEL STATUS</text>
  <rect x="25" y="490" width="350" height="80" fill="#0d1117" stroke="#30363d" stroke-width="1" rx="3"/>

  <text x="35" y="510" fill="#f0f6fc" font-family="Monaco, monospace" font-size="11">Model Version: v2.1.4</text>
  <text x="35" y="525" fill="#39d353" font-family="Monaco, monospace" font-size="10">✓ Training: Complete (99.2% acc)</text>
  <text x="35" y="540" fill="#58a6ff" font-family="Monaco, monospace" font-size="10">→ Canary: 10% traffic</text>
  <text x="35" y="555" fill="#8b949e" font-family="Monaco, monospace" font-size="10">Last Updated: 2h ago</text>

  <!-- Action Buttons -->
  <rect x="25" y="590" width="100" height="30" fill="#238636" rx="3"/>
  <text x="55" y="610" fill="#0d1117" font-family="Monaco, monospace" font-size="11" font-weight="bold">Retrain</text>

  <rect x="135" y="590" width="100" height="30" fill="#30363d" rx="3"/>
  <text x="165" y="610" fill="#f0f6fc" font-family="Monaco, monospace" font-size="11">Rollback</text>

  <rect x="245" y="590" width="130" height="30" fill="#58a6ff" rx="3"/>
  <text x="285" y="610" fill="#0d1117" font-family="Monaco, monospace" font-size="11" font-weight="bold">Export Model</text>

  <!-- Center Panel: Live Recommendations -->
  <rect x="400" y="50" width="400" height="740" fill="#161b22" stroke="#30363d" stroke-width="1" rx="4"/>
  <text x="415" y="75" fill="#f0f6fc" font-family="Monaco, monospace" font-size="16" font-weight="bold">🔮 Live Recommendations</text>

  <!-- Current Job Preview -->
  <text x="415" y="100" fill="#8b949e" font-family="Monaco, monospace" font-size="11">NEXT RETRY PREVIEW</text>
  <rect x="415" y="110" width="370" height="100" fill="#0d1117" stroke="#30363d" stroke-width="1" rx="3"/>

  <text x="425" y="130" fill="#f0f6fc" font-family="Monaco, monospace" font-size="11">Job ID: job_67890</text>
  <text x="425" y="145" fill="#f85149" font-family="Monaco, monospace" font-size="11">Error: Connection timeout (attempt 2/5)</text>
  <text x="425" y="160" fill="#ffa657" font-family="Monaco, monospace" font-size="11">Queue: payment-processing</text>

  <text x="425" y="180" fill="#58a6ff" font-family="Monaco, monospace" font-size="11" font-weight="bold">Recommended Delay: 4.2s</text>
  <text x="425" y="195" fill="#39d353" font-family="Monaco, monospace" font-size="10">Confidence: 89% | Success Prob: 76%</text>

  <!-- Recommendation Timeline -->
  <text x="415" y="230" fill="#8b949e" font-family="Monaco, monospace" font-size="11">RETRY SCHEDULE</text>
  <rect x="415" y="240" width="370" height="150" fill="#0d1117" stroke="#30363d" stroke-width="1" rx="3"/>

  <!-- Timeline visualization -->
  <line x1="430" y1="260" x2="770" y2="260" stroke="#30363d" stroke-width="2"/>

  <!-- Timeline markers -->
  <circle cx="440" cy="260" r="4" fill="#f85149"/>
  <text x="425" y="280" fill="#f85149" font-family="Monaco, monospace" font-size="9">Now</text>

  <circle cx="520" cy="260" r="4" fill="#ffa657"/>
  <text x="505" y="280" fill="#ffa657" font-family="Monaco, monospace" font-size="9">4.2s</text>
  <rect x="500" y="285" width="40" height="15" fill="#ffa657" rx="2"/>
  <text x="510" y="295" fill="#0d1117" font-family="Monaco, monospace" font-size="8" font-weight="bold">76%</text>

  <circle cx="620" cy="260" r="4" fill="#58a6ff"/>
  <text x="605" y="280" fill="#58a6ff" font-family="Monaco, monospace" font-size="9">12.8s</text>
  <rect x="600" y="285" width="40" height="15" fill="#58a6ff" rx="2"/>
  <text x="610" y="295" fill="#0d1117" font-family="Monaco, monospace" font-size="8" font-weight="bold">85%</text>

  <circle cx="730" cy="260" r="4" fill="#39d353"/>
  <text x="715" y="280" fill="#39d353" font-family="Monaco, monospace" font-size="9">38.4s</text>
  <rect x="710" y="285" width="40" height="15" fill="#39d353" rx="2"/>
  <text x="720" y="295" fill="#0d1117" font-family="Monaco, monospace" font-size="8" font-weight="bold">92%</text>

  <!-- Rationale Box -->
  <text x="425" y="320" fill="#f0f6fc" font-family="Monaco, monospace" font-size="11">Rationale:</text>
  <text x="425" y="335" fill="#8b949e" font-family="Monaco, monospace" font-size="10">• Similar timeouts recover in 3-6s (β-dist)</text>
  <text x="425" y="350" fill="#8b949e" font-family="Monaco, monospace" font-size="10">• Payment queue has 15% rate limits at peak</text>
  <text x="425" y="365" fill="#8b949e" font-family="Monaco, monospace" font-size="10">• Worker pool healthy (low CPU)</text>

  <!-- Pattern Analysis -->
  <text x="415" y="410" fill="#8b949e" font-family="Monaco, monospace" font-size="11">PATTERN ANALYSIS</text>
  <rect x="415" y="420" width="370" height="120" fill="#0d1117" stroke="#30363d" stroke-width="1" rx="3"/>

  <text x="425" y="440" fill="#f0f6fc" font-family="Monaco, monospace" font-size="11">Similar Failures (Last 24h)</text>
  <text x="425" y="455" fill="#39d353" font-family="Monaco, monospace" font-size="10">✓ 142 jobs recovered within 5s</text>
  <text x="425" y="470" fill="#ffa657" font-family="Monaco, monospace" font-size="10">⚠ 23 jobs failed after 30s timeout</text>
  <text x="425" y="485" fill="#f85149" font-family="Monaco, monospace" font-size="10">✗ 8 jobs hit max attempts</text>

  <text x="425" y="505" fill="#58a6ff" font-family="Monaco, monospace" font-size="10">Peak Error Window: 14:30-15:00</text>
  <text x="425" y="520" fill="#8b949e" font-family="Monaco, monospace" font-size="10">Avg Recovery Time: 6.8s ± 3.2s</text>

  <!-- Override Controls -->
  <text x="415" y="560" fill="#8b949e" font-family="Monaco, monospace" font-size="11">MANUAL OVERRIDES</text>
  <rect x="415" y="570" width="370" height="80" fill="#0d1117" stroke="#30363d" stroke-width="1" rx="3"/>

  <rect x="425" y="585" width="80" height="25" fill="#f85149" rx="3"/>
  <text x="445" y="602" fill="#0d1117" font-family="Monaco, monospace" font-size="10" font-weight="bold">Kill Job</text>

  <rect x="515" y="585" width="100" height="25" fill="#ffa657" rx="3"/>
  <text x="545" y="602" fill="#0d1117" font-family="Monaco, monospace" font-size="10" font-weight="bold">Force Retry</text>

  <rect x="625" y="585" width="120" height="25" fill="#58a6ff" rx="3"/>
  <text x="665" y="602" fill="#0d1117" font-family="Monaco, monospace" font-size="10" font-weight="bold">Use Static</text>

  <text x="425" y="630" fill="#8b949e" font-family="Monaco, monospace" font-size="10">Custom Delay:</text>
  <rect x="500" y="620" width="60" height="20" fill="#30363d" stroke="#58a6ff" stroke-width="1" rx="2"/>
  <text x="515" y="632" fill="#f0f6fc" font-family="Monaco, monospace" font-size="10">10s</text>

  <!-- Right Panel: Analytics & Monitoring -->
  <rect x="810" y="50" width="380" height="740" fill="#161b22" stroke="#30363d" stroke-width="1" rx="4"/>
  <text x="825" y="75" fill="#f0f6fc" font-family="Monaco, monospace" font-size="16" font-weight="bold">📊 Performance Analytics</text>

  <!-- Success Rate Chart -->
  <text x="825" y="100" fill="#8b949e" font-family="Monaco, monospace" font-size="11">SUCCESS RATE IMPROVEMENT</text>
  <rect x="825" y="110" width="350" height="120" fill="#0d1117" stroke="#30363d" stroke-width="1" rx="3"/>

  <!-- Mini chart -->
  <rect x="835" y="120" width="330" height="80" fill="#1f2937" rx="2"/>
  <text x="845" y="135" fill="#8b949e" font-family="Monaco, monospace" font-size="9">Static Backoff</text>
  <line x1="845" y1="140" x2="1000" y2="170" stroke="#f85149" stroke-width="2"/>
  <text x="1010" y="175" fill="#f85149" font-family="Monaco, monospace" font-size="9">64%</text>

  <text x="845" y="155" fill="#8b949e" font-family="Monaco, monospace" font-size="9">Smart Retry</text>
  <line x1="845" y1="160" x2="1000" y2="145" stroke="#39d353" stroke-width="2"/>
  <text x="1010" y="150" fill="#39d353" font-family="Monaco, monospace" font-size="9">81%</text>

  <text x="845" y="210" fill="#39d353" font-family="Monaco, monospace" font-size="11" font-weight="bold">+17% Success Rate Improvement</text>

  <!-- Resource Savings -->
  <text x="825" y="250" fill="#8b949e" font-family="Monaco, monospace" font-size="11">RESOURCE SAVINGS</text>
  <rect x="825" y="260" width="350" height="100" fill="#0d1117" stroke="#30363d" stroke-width="1" rx="3"/>

  <text x="835" y="280" fill="#f0f6fc" font-family="Monaco, monospace" font-size="11">CPU Time Saved:</text>
  <text x="1100" y="280" fill="#39d353" font-family="Monaco, monospace" font-size="11" font-weight="bold">-23%</text>

  <text x="835" y="295" fill="#f0f6fc" font-family="Monaco, monospace" font-size="11">Network Calls:</text>
  <text x="1100" y="295" fill="#39d353" font-family="Monaco, monospace" font-size="11" font-weight="bold">-18%</text>

  <text x="835" y="310" fill="#f0f6fc" font-family="Monaco, monospace" font-size="11">Avg Time to Success:</text>
  <text x="1080" y="310" fill="#39d353" font-family="Monaco, monospace" font-size="11" font-weight="bold">-31%</text>

  <text x="835" y="340" fill="#58a6ff" font-family="Monaco, monospace" font-size="10">Est. Monthly Cost Savings: $1,247</text>

  <!-- Alert System -->
  <text x="825" y="380" fill="#8b949e" font-family="Monaco, monospace" font-size="11">ACTIVE ALERTS</text>
  <rect x="825" y="390" width="350" height="100" fill="#0d1117" stroke="#30363d" stroke-width="1" rx="3"/>

  <rect x="835" y="405" width="320" height="20" fill="#f85149" fill-opacity="0.2" rx="2"/>
  <text x="840" y="418" fill="#f85149" font-family="Monaco, monospace" font-size="10">⚠ Model drift detected in queue: email-batch</text>

  <rect x="835" y="430" width="320" height="20" fill="#ffa657" fill-opacity="0.2" rx="2"/>
  <text x="840" y="443" fill="#ffa657" font-family="Monaco, monospace" font-size="10">⚠ High retry rate in payment-processing</text>

  <rect x="835" y="455" width="320" height="20" fill="#58a6ff" fill-opacity="0.2" rx="2"/>
  <text x="840" y="468" fill="#58a6ff" font-family="Monaco, monospace" font-size="10">ℹ Model retraining recommended (24h drift)</text>

  <!-- Configuration Export -->
  <text x="825" y="510" fill="#8b949e" font-family="Monaco, monospace" font-size="11">CONFIGURATION</text>
  <rect x="825" y="520" width="350" height="180" fill="#0d1117" stroke="#30363d" stroke-width="1" rx="3"/>

  <text x="835" y="540" fill="#f0f6fc" font-family="Monaco, monospace" font-size="11">Current Strategies:</text>
  <text x="835" y="555" fill="#39d353" font-family="Monaco, monospace" font-size="10">✓ payment-*: Bayesian (v2.1.4)</text>
  <text x="835" y="570" fill="#39d353" font-family="Monaco, monospace" font-size="10">✓ email-*: Exponential + Jitter</text>
  <text x="835" y="585" fill="#ffa657" font-family="Monaco, monospace" font-size="10">⚠ batch-*: Static (upgrade pending)</text>

  <text x="835" y="610" fill="#f0f6fc" font-family="Monaco, monospace" font-size="11">Global Limits:</text>
  <text x="835" y="625" fill="#8b949e" font-family="Monaco, monospace" font-size="10">Max Attempts: 5 | Max Delay: 300s</text>
  <text x="835" y="640" fill="#8b949e" font-family="Monaco, monospace" font-size="10">Rate Limit: 1000 retries/min</text>

  <rect x="835" y="660" width="100" height="25" fill="#238636" rx="3"/>
  <text x="865" y="677" fill="#0d1117" font-family="Monaco, monospace" font-size="10" font-weight="bold">Export Config</text>

  <rect x="945" y="660" width="120" height="25" fill="#30363d" rx="3"/>
  <text x="980" y="677" fill="#f0f6fc" font-family="Monaco, monospace" font-size="10">Import Rules</text>

  <!-- Status Bar -->
  <rect x="0" y="800" width="1200" height="0" fill="#161b22" stroke="#30363d" stroke-width="1"/>

</svg>