<svg width="400" height="800" viewBox="0 0 400 800" xmlns="http://www.w3.org/2000/svg">
  <!-- Background -->
  <rect width="400" height="800" fill="#0d1117"/>

  <!-- Tab Navigation -->
  <rect x="0" y="0" width="400" height="45" fill="#161b22" stroke="#30363d" stroke-width="1"/>

  <!-- Tabs -->
  <rect x="5" y="5" width="90" height="35" fill="#58a6ff" rx="3"/>
  <text x="35" y="28" fill="#0d1117" font-family="Monaco, monospace" font-size="11" font-weight="bold">Strategy</text>

  <rect x="100" y="5" width="90" height="35" fill="#30363d" rx="3"/>
  <text x="125" y="28" fill="#f0f6fc" font-family="Monaco, monospace" font-size="11">Preview</text>

  <rect x="195" y="5" width="90" height="35" fill="#30363d" rx="3"/>
  <text x="220" y="28" fill="#f0f6fc" font-family="Monaco, monospace" font-size="11">Analytics</text>

  <rect x="290" y="5" width="90" height="35" fill="#30363d" rx="3"/>
  <text x="318" y="28" fill="#f0f6fc" font-family="Monaco, monospace" font-size="11">Alerts</text>

  <!-- Strategy Tab Content -->
  <text x="15" y="70" fill="#f0f6fc" font-family="Monaco, monospace" font-size="14" font-weight="bold">🎯 Smart Retry Strategy</text>

  <!-- Current Strategy Card -->
  <rect x="10" y="85" width="380" height="100" fill="#161b22" stroke="#30363d" stroke-width="1" rx="4"/>
  <text x="20" y="105" fill="#8b949e" font-family="Monaco, monospace" font-size="10">CURRENT STRATEGY</text>
  <text x="20" y="125" fill="#f0f6fc" font-family="Monaco, monospace" font-size="13" font-weight="bold">Bayesian Adaptive</text>
  <text x="20" y="140" fill="#39d353" font-family="Monaco, monospace" font-size="10">✓ Model: v2.1.4 (Active)</text>
  <text x="20" y="155" fill="#58a6ff" font-family="Monaco, monospace" font-size="10">→ Success Rate: 81% (+17%)</text>
  <text x="20" y="170" fill="#8b949e" font-family="Monaco, monospace" font-size="10">Last Updated: 2h ago</text>

  <!-- Quick Stats Grid -->
  <rect x="10" y="200" width="180" height="70" fill="#161b22" stroke="#30363d" stroke-width="1" rx="4"/>
  <text x="20" y="220" fill="#8b949e" font-family="Monaco, monospace" font-size="10">TODAY'S RETRIES</text>
  <text x="20" y="240" fill="#f0f6fc" font-family="Monaco, monospace" font-size="18" font-weight="bold">2,847</text>
  <text x="20" y="255" fill="#39d353" font-family="Monaco, monospace" font-size="10">-23% vs static</text>

  <rect x="210" y="200" width="180" height="70" fill="#161b22" stroke="#30363d" stroke-width="1" rx="4"/>
  <text x="220" y="220" fill="#8b949e" font-family="Monaco, monospace" font-size="10">AVG DELAY</text>
  <text x="220" y="240" fill="#f0f6fc" font-family="Monaco, monospace" font-size="18" font-weight="bold">4.2s</text>
  <text x="220" y="255" fill="#58a6ff" font-family="Monaco, monospace" font-size="10">±1.8s jitter</text>

  <!-- Algorithm Settings -->
  <text x="15" y="295" fill="#8b949e" font-family="Monaco, monospace" font-size="11">ALGORITHM PARAMETERS</text>
  <rect x="10" y="305" width="380" height="140" fill="#161b22" stroke="#30363d" stroke-width="1" rx="4"/>

  <text x="20" y="325" fill="#f0f6fc" font-family="Monaco, monospace" font-size="11">Base Backoff</text>
  <text x="20" y="340" fill="#8b949e" font-family="Monaco, monospace" font-size="10">1s → 60s exponential</text>
  <rect x="20" y="345" width="300" height="8" fill="#30363d" rx="4"/>
  <rect x="20" y="345" width="180" height="8" fill="#58a6ff" rx="4"/>

  <text x="20" y="365" fill="#f0f6fc" font-family="Monaco, monospace" font-size="11">Success Threshold</text>
  <text x="20" y="380" fill="#39d353" font-family="Monaco, monospace" font-size="10">75% (β=0.95 confidence)</text>

  <text x="20" y="400" fill="#f0f6fc" font-family="Monaco, monospace" font-size="11">Max Attempts: 5</text>
  <text x="20" y="415" fill="#f0f6fc" font-family="Monaco, monospace" font-size="11">Jitter Factor: ±10%</text>
  <text x="20" y="430" fill="#39d353" font-family="Monaco, monospace" font-size="10">✓ Model Training: Complete</text>

  <!-- Performance by Error Type -->
  <text x="15" y="465" fill="#8b949e" font-family="Monaco, monospace" font-size="11">SUCCESS RATE BY ERROR TYPE</text>
  <rect x="10" y="475" width="380" height="120" fill="#161b22" stroke="#30363d" stroke-width="1" rx="4"/>

  <!-- Error bars (stacked horizontally for mobile) -->
  <text x="20" y="495" fill="#f0f6fc" font-family="Monaco, monospace" font-size="10">Connection Timeout</text>
  <rect x="20" y="500" width="300" height="12" fill="#30363d" rx="2"/>
  <rect x="20" y="500" width="136" height="12" fill="#f85149" rx="2"/>
  <text x="330" y="510" fill="#f85149" font-family="Monaco, monospace" font-size="10" font-weight="bold">45%</text>

  <text x="20" y="525" fill="#f0f6fc" font-family="Monaco, monospace" font-size="10">Rate Limited</text>
  <rect x="20" y="530" width="300" height="12" fill="#30363d" rx="2"/>
  <rect x="20" y="530" width="204" height="12" fill="#ffa657" rx="2"/>
  <text x="330" y="540" fill="#ffa657" font-family="Monaco, monospace" font-size="10" font-weight="bold">68%</text>

  <text x="20" y="555" fill="#f0f6fc" font-family="Monaco, monospace" font-size="10">Connection Error</text>
  <rect x="20" y="560" width="300" height="12" fill="#30363d" rx="2"/>
  <rect x="20" y="560" width="246" height="12" fill="#39d353" rx="2"/>
  <text x="330" y="570" fill="#39d353" font-family="Monaco, monospace" font-size="10" font-weight="bold">82%</text>

  <!-- Queue-Specific Rules -->
  <text x="15" y="615" fill="#8b949e" font-family="Monaco, monospace" font-size="11">QUEUE-SPECIFIC RULES</text>
  <rect x="10" y="625" width="380" height="100" fill="#161b22" stroke="#30363d" stroke-width="1" rx="4"/>

  <rect x="20" y="640" width="360" height="20" fill="#39d353" fill-opacity="0.2" rx="2"/>
  <text x="25" y="652" fill="#39d353" font-family="Monaco, monospace" font-size="9">✓ payment-queue: Bayesian (optimized)</text>

  <rect x="20" y="665" width="360" height="20" fill="#ffa657" fill-opacity="0.2" rx="2"/>
  <text x="25" y="677" fill="#ffa657" font-family="Monaco, monospace" font-size="9">⚠ email-queue: High retry rate detected</text>

  <rect x="20" y="690" width="360" height="20" fill="#58a6ff" fill-opacity="0.2" rx="2"/>
  <text x="25" y="702" fill="#58a6ff" font-family="Monaco, monospace" font-size="9">→ batch-queue: Migration to smart pending</text>

  <!-- Control Buttons -->
  <rect x="10" y="740" width="120" height="35" fill="#238636" rx="4"/>
  <text x="50" y="762" fill="#0d1117" font-family="Monaco, monospace" font-size="11" font-weight="bold">Retrain</text>

  <rect x="140" y="740" width="120" height="35" fill="#30363d" rx="4"/>
  <text x="175" y="762" fill="#f0f6fc" font-family="Monaco, monospace" font-size="11">Export</text>

  <rect x="270" y="740" width="120" height="35" fill="#58a6ff" rx="4"/>
  <text x="310" y="762" fill="#0d1117" font-family="Monaco, monospace" font-size="11" font-weight="bold">Settings</text>

</svg>