<svg width="1200" height="800" xmlns="http://www.w3.org/2000/svg">
  <!-- Background -->
  <rect width="1200" height="800" fill="#0d1117"/>

  <!-- Main TUI Panel -->
  <rect x="20" y="20" width="1160" height="760" fill="#161b22" stroke="#30363d" stroke-width="2" rx="6"/>

  <!-- Header Bar -->
  <rect x="40" y="40" width="1120" height="50" fill="#0d1117" stroke="#30363d" stroke-width="1" rx="4"/>
  <text x="60" y="70" fill="#f0f6fc" font-family="Monaco, monospace" font-size="18" font-weight="bold">Queue Manager - Voice Commands Active</text>

  <!-- Voice Status Indicator -->
  <rect x="900" y="45" width="260" height="40" fill="#238636" rx="20"/>
  <circle cx="925" cy="65" r="8" fill="#39d353"/>
  <text x="945" y="70" fill="#ffffff" font-family="Monaco, monospace" font-size="12" font-weight="bold">🎤 LISTENING</text>

  <!-- Main Content Area -->
  <rect x="40" y="110" width="1120" height="620" fill="#0d1117" stroke="#30363d" stroke-width="1" rx="4"/>

  <!-- Left Panel - Queue Status -->
  <rect x="60" y="130" width="350" height="580" fill="#161b22" stroke="#30363d" stroke-width="1" rx="4"/>
  <text x="80" y="160" fill="#f0f6fc" font-family="Monaco, monospace" font-size="14" font-weight="bold">Queue Status</text>

  <!-- Queue Items -->
  <text x="80" y="190" fill="#8b949e" font-family="Monaco, monospace" font-size="12">high_priority: 142 jobs</text>
  <text x="80" y="210" fill="#8b949e" font-family="Monaco, monospace" font-size="12">normal: 1,847 jobs</text>
  <text x="80" y="230" fill="#8b949e" font-family="Monaco, monospace" font-size="12">low_priority: 523 jobs</text>

  <!-- Workers Section -->
  <text x="80" y="270" fill="#f0f6fc" font-family="Monaco, monospace" font-size="14" font-weight="bold">Workers</text>
  <text x="80" y="300" fill="#39d353" font-family="Monaco, monospace" font-size="12">worker-1: ACTIVE</text>
  <text x="80" y="320" fill="#39d353" font-family="Monaco, monospace" font-size="12">worker-2: ACTIVE</text>
  <text x="80" y="340" fill="#ffa657" font-family="Monaco, monospace" font-size="12">worker-3: DRAINING</text>
  <text x="80" y="360" fill="#f85149" font-family="Monaco, monospace" font-size="12">worker-4: STOPPED</text>

  <!-- Center Panel - Voice Command Interface -->
  <rect x="430" y="130" width="450" height="580" fill="#161b22" stroke="#30363d" stroke-width="1" rx="4"/>
  <text x="450" y="160" fill="#f0f6fc" font-family="Monaco, monospace" font-size="14" font-weight="bold">Voice Commands</text>

  <!-- Voice Waveform Visualization -->
  <rect x="450" y="180" width="410" height="120" fill="#0d1117" stroke="#30363d" stroke-width="1" rx="4"/>

  <!-- Waveform -->
  <g stroke="#58a6ff" stroke-width="2" fill="none">
    <path d="M470 240 L490 220 L510 250 L530 210 L550 260 L570 200 L590 270 L610 190 L630 240 L650 230 L670 250 L690 220 L710 240 L730 210 L750 250 L770 230 L790 240 L810 220 L830 240"/>
  </g>

  <!-- Current Command Display -->
  <rect x="450" y="320" width="410" height="60" fill="#0d1117" stroke="#58a6ff" stroke-width="2" rx="4"/>
  <text x="470" y="340" fill="#8b949e" font-family="Monaco, monospace" font-size="10">RECOGNIZED:</text>
  <text x="470" y="360" fill="#39d353" font-family="Monaco, monospace" font-size="14" font-weight="bold">"drain worker 3"</text>

  <!-- Command Confidence -->
  <rect x="700" y="345" width="100" height="20" fill="#0d1117" stroke="#30363d" stroke-width="1" rx="2"/>
  <rect x="702" y="347" width="85" height="16" fill="#238636" rx="2"/>
  <text x="820" y="358" fill="#39d353" font-family="Monaco, monospace" font-size="10">92%</text>

  <!-- Command History -->
  <text x="450" y="410" fill="#f0f6fc" font-family="Monaco, monospace" font-size="12" font-weight="bold">Recent Commands:</text>
  <text x="450" y="430" fill="#8b949e" font-family="Monaco, monospace" font-size="10">10:34:12 "show me the dlq" → Navigated to DLQ tab</text>
  <text x="450" y="445" fill="#8b949e" font-family="Monaco, monospace" font-size="10">10:33:45 "how many jobs in high priority" → Displayed count</text>
  <text x="450" y="460" fill="#8b949e" font-family="Monaco, monospace" font-size="10">10:33:21 "requeue all failed jobs" → Processing...</text>

  <!-- Command Suggestions -->
  <text x="450" y="500" fill="#f0f6fc" font-family="Monaco, monospace" font-size="12" font-weight="bold">Try saying:</text>
  <text x="450" y="520" fill="#58a6ff" font-family="Monaco, monospace" font-size="10">• "drain worker 3"</text>
  <text x="450" y="535" fill="#58a6ff" font-family="Monaco, monospace" font-size="10">• "show me the charts"</text>
  <text x="450" y="550" fill="#58a6ff" font-family="Monaco, monospace" font-size="10">• "how many failed jobs?"</text>
  <text x="450" y="565" fill="#58a6ff" font-family="Monaco, monospace" font-size="10">• "requeue last 10 jobs"</text>

  <!-- Wake Word Indicator -->
  <rect x="450" y="590" width="410" height="30" fill="#1f2937" stroke="#ffa657" stroke-width="1" rx="4"/>
  <text x="470" y="610" fill="#ffa657" font-family="Monaco, monospace" font-size="11">💡 Say "Hey Queue" to activate voice commands</text>

  <!-- Right Panel - Settings & Feedback -->
  <rect x="900" y="130" width="280" height="580" fill="#161b22" stroke="#30363d" stroke-width="1" rx="4"/>
  <text x="920" y="160" fill="#f0f6fc" font-family="Monaco, monospace" font-size="14" font-weight="bold">Voice Settings</text>

  <!-- Recognition Backend -->
  <text x="920" y="190" fill="#8b949e" font-family="Monaco, monospace" font-size="11">Recognition:</text>
  <rect x="920" y="195" width="120" height="25" fill="#0d1117" stroke="#30363d" stroke-width="1" rx="2"/>
  <text x="930" y="212" fill="#39d353" font-family="Monaco, monospace" font-size="10">Whisper (Local)</text>

  <!-- Wake Word -->
  <text x="920" y="245" fill="#8b949e" font-family="Monaco, monospace" font-size="11">Wake Word:</text>
  <rect x="920" y="250" width="120" height="25" fill="#0d1117" stroke="#30363d" stroke-width="1" rx="2"/>
  <text x="930" y="267" fill="#58a6ff" font-family="Monaco, monospace" font-size="10">"Hey Queue"</text>

  <!-- Privacy Mode -->
  <text x="920" y="300" fill="#8b949e" font-family="Monaco, monospace" font-size="11">Privacy:</text>
  <circle cx="930" cy="315" r="5" fill="#39d353"/>
  <text x="945" y="320" fill="#39d353" font-family="Monaco, monospace" font-size="10">Local Only</text>

  <!-- Audio Feedback -->
  <text x="920" y="350" fill="#8b949e" font-family="Monaco, monospace" font-size="11">Audio Feedback:</text>
  <circle cx="930" cy="365" r="5" fill="#58a6ff"/>
  <text x="945" y="370" fill="#58a6ff" font-family="Monaco, monospace" font-size="10">Enabled</text>

  <!-- Microphone Level -->
  <text x="920" y="400" fill="#8b949e" font-family="Monaco, monospace" font-size="11">Mic Level:</text>
  <rect x="920" y="410" width="120" height="15" fill="#0d1117" stroke="#30363d" stroke-width="1" rx="2"/>
  <rect x="922" y="412" width="90" height="11" fill="#238636" rx="1"/>

  <!-- Command Accuracy -->
  <text x="920" y="450" fill="#8b949e" font-family="Monaco, monospace" font-size="11">Accuracy:</text>
  <text x="920" y="470" fill="#39d353" font-family="Monaco, monospace" font-size="12" font-weight="bold">94.2% avg</text>

  <!-- Keyboard Shortcuts -->
  <text x="920" y="510" fill="#8b949e" font-family="Monaco, monospace" font-size="11">Shortcuts:</text>
  <text x="920" y="530" fill="#8b949e" font-family="Monaco, monospace" font-size="9">V - Toggle voice</text>
  <text x="920" y="545" fill="#8b949e" font-family="Monaco, monospace" font-size="9">Space - Push to talk</text>
  <text x="920" y="560" fill="#8b949e" font-family="Monaco, monospace" font-size="9">Esc - Stop listening</text>

  <!-- Command Processing Indicator -->
  <rect x="450" y="650" width="410" height="50" fill="#1f2937" stroke="#ffa657" stroke-width="2" rx="4"/>
  <circle cx="470" cy="675" r="5" fill="#ffa657"/>
  <text x="485" y="680" fill="#ffa657" font-family="Monaco, monospace" font-size="12" font-weight="bold">Processing: "drain worker 3"</text>

  <!-- Processing Animation -->
  <circle cx="750" cy="675" r="3" fill="#ffa657" opacity="0.8"/>
  <circle cx="770" cy="675" r="3" fill="#ffa657" opacity="0.6"/>
  <circle cx="790" cy="675" r="3" fill="#ffa657" opacity="0.4"/>
</svg>