<svg viewBox="0 0 1400 800" xmlns="http://www.w3.org/2000/svg">
  <defs>
    <style>
      .dlq-bg { fill: #1a1b26; }
      .panel-bg { fill: #24283b; stroke: #414868; stroke-width: 1; }
      .error-panel { fill: #24283b; stroke: #f7768e; stroke-width: 2; }
      .header-bg { fill: #1f2335; }
      .critical-bg { fill: #441e1e; }
      .warning-bg { fill: #443822; }
      .info-bg { fill: #1e3a44; }
      .primary-text { fill: #c0caf5; font-family: Monaco, monospace; font-size: 9px; }
      .secondary-text { fill: #7aa2f7; font-family: Monaco, monospace; font-size: 8px; }
      .accent-text { fill: #bb9af7; font-family: Monaco, monospace; font-size: 9px; }
      .success-text { fill: #9ece6a; font-family: Monaco, monospace; font-size: 8px; }
      .warning-text { fill: #e0af68; font-family: Monaco, monospace; font-size: 8px; }
      .danger-text { fill: #f7768e; font-family: Monaco, monospace; font-size: 8px; }
      .code-text { fill: #c0caf5; font-family: 'Courier New', monospace; font-size: 8px; }
      .json-key { fill: #7aa2f7; font-family: 'Courier New', monospace; font-size: 8px; }
      .json-string { fill: #9ece6a; font-family: 'Courier New', monospace; font-size: 8px; }
      .json-number { fill: #e0af68; font-family: 'Courier New', monospace; font-size: 8px; }
    </style>
  </defs>

  <!-- Background -->
  <rect width="1400" height="800" class="dlq-bg"/>

  <!-- Header -->
  <rect x="0" y="0" width="1400" height="50" class="header-bg"/>
  <text x="20" y="20" class="danger-text" font-size="12">💀 Dead Letter Queue - Remediation Center</text>
  <text x="20" y="35" class="secondary-text">247 failed jobs • 23 patterns identified • Last failure: 2m ago • Auto-remediation: 89% success rate</text>

  <!-- Critical Alerts -->
  <g transform="translate(1000,10)">
    <rect x="0" y="0" width="120" height="25" class="critical-bg" stroke="#f7768e" rx="3"/>
    <text x="60" y="16" text-anchor="middle" class="danger-text" font-size="8">🚨 Critical: 23 new</text>

    <rect x="130" y="0" width="100" height="25" class="panel-bg" stroke="#bb9af7" rx="3"/>
    <text x="180" y="16" text-anchor="middle" class="accent-text" font-size="8">📊 Analytics</text>

    <rect x="240" y="0" width="120" height="25" class="panel-bg" stroke="#9ece6a" rx="3"/>
    <text x="300" y="16" text-anchor="middle" class="success-text" font-size="8">🤖 Auto-Remediate</text>
  </g>

  <!-- Main Content Area -->
  <g transform="translate(0,60)">
    <!-- Left Panel: Failure Patterns -->
    <rect x="20" y="0" width="400" height="720" class="error-panel" rx="6"/>

    <!-- Pattern Analysis Header -->
    <rect x="20" y="0" width="400" height="30" fill="#441e1e" rx="6"/>
    <text x="30" y="20" class="danger-text" font-size="10">🔍 Failure Pattern Analysis</text>

    <!-- Pattern Categories -->
    <g transform="translate(30,40)">
      <text x="0" y="15" class="accent-text">Identified Patterns (23 groups)</text>

      <!-- Pattern 1: Database Connection -->
      <g transform="translate(0,25)">
        <rect x="0" y="0" width="370" height="80" class="critical-bg" stroke="#f7768e" rx="4"/>
        <text x="10" y="15" class="danger-text" font-size="9">🔥 Database Connection Timeout</text>
        <text x="10" y="30" class="primary-text" font-size="8">89 failures • 36% of all DLQ items • Severity: CRITICAL</text>

        <g transform="translate(10,35)">
          <text x="0" y="12" class="secondary-text" font-size="7">Common error: "connection timeout after 30s"</text>
          <text x="0" y="24" class="secondary-text" font-size="7">Affected queues: user-registration, order-processing</text>
          <text x="0" y="36" class="secondary-text" font-size="7">Pattern: Spikes during peak hours (9-11 AM, 6-8 PM)</text>

          <rect x="250" y="0" width="50" height="15" class="panel-bg" stroke="#9ece6a" rx="2"/>
          <text x="275" y="10" text-anchor="middle" class="success-text" font-size="7">Fix (67)</text>

          <rect x="305" y="0" width="50" height="15" class="panel-bg" stroke="#7aa2f7" rx="2"/>
          <text x="330" y="10" text-anchor="middle" class="secondary-text" font-size="7">Retry (22)</text>
        </g>
      </g>

      <!-- Pattern 2: JSON Parsing -->
      <g transform="translate(0,115)">
        <rect x="0" y="0" width="370" height="80" class="warning-bg" stroke="#e0af68" rx="4"/>
        <text x="10" y="15" class="warning-text" font-size="9">⚠ Invalid JSON Payload</text>
        <text x="10" y="30" class="primary-text" font-size="8">34 failures • 14% of all DLQ items • Severity: HIGH</text>

        <g transform="translate(10,35)">
          <text x="0" y="12" class="secondary-text" font-size="7">Common error: "unexpected token at position 127"</text>
          <text x="0" y="24" class="secondary-text" font-size="7">Affected queues: webhook-processor, api-gateway</text>
          <text x="0" y="36" class="secondary-text" font-size="7">Pattern: External API format changes</text>

          <rect x="250" y="0" width="50" height="15" class="panel-bg" stroke="#bb9af7" rx="2"/>
          <text x="275" y="10" text-anchor="middle" class="accent-text" font-size="7">Edit (28)</text>

          <rect x="305" y="0" width="50" height="15" class="panel-bg" stroke="#f7768e" rx="2"/>
          <text x="330" y="10" text-anchor="middle" class="danger-text" font-size="7">Drop (6)</text>
        </g>
      </g>

      <!-- Pattern 3: Rate Limiting -->
      <g transform="translate(0,205)">
        <rect x="0" y="0" width="370" height="80" class="info-bg" stroke="#7aa2f7" rx="4"/>
        <text x="10" y="15" class="secondary-text" font-size="9">📊 Rate Limit Exceeded</text>
        <text x="10" y="30" class="primary-text" font-size="8">28 failures • 11% of all DLQ items • Severity: MEDIUM</text>

        <g transform="translate(10,35)">
          <text x="0" y="12" class="secondary-text" font-size="7">Common error: "429 Too Many Requests"</text>
          <text x="0" y="24" class="secondary-text" font-size="7">Affected queues: email-sender, notification-service</text>
          <text x="0" y="36" class="secondary-text" font-size="7">Pattern: Burst traffic from campaigns</text>

          <rect x="250" y="0" width="50" height="15" class="panel-bg" stroke="#e0af68" rx="2"/>
          <text x="275" y="10" text-anchor="middle" class="warning-text" font-size="7">Delay (28)</text>

          <rect x="305" y="0" width="50" height="15" class="panel-bg" stroke="#565f89" rx="2"/>
          <text x="330" y="10" text-anchor="middle" class="secondary-text" font-size="7">Queue</text>
        </g>
      </g>

      <!-- Smart Recommendations -->
      <g transform="translate(0,295)">
        <rect x="0" y="0" width="370" height="120" fill="#1f2335" stroke="#bb9af7" rx="4"/>
        <text x="10" y="15" class="accent-text" font-size="9">🤖 AI Recommendations</text>

        <g transform="translate(10,25)">
          <text x="0" y="12" class="success-text" font-size="8">✓ Increase DB connection pool (5→15)</text>
          <text x="0" y="24" class="success-text" font-size="8">✓ Add circuit breaker for external APIs</text>
          <text x="0" y="36" class="warning-text" font-size="8">⚡ Implement exponential backoff (3x → 5x)</text>
          <text x="0" y="48" class="secondary-text" font-size="8">ℹ Schedule rate limit bursts for off-peak</text>

          <rect x="0" y="60" width="350" height="20" class="panel-bg" stroke="#9ece6a" rx="3"/>
          <text x="175" y="72" text-anchor="middle" class="success-text" font-size="8">Apply All Recommendations</text>

          <g transform="translate(0,85)">
            <text x="0" y="0" class="secondary-text" font-size="7">Estimated impact: 78% reduction in failures</text>
            <text x="200" y="0" class="secondary-text" font-size="7">Confidence: 94%</text>
          </g>
        </g>
      </g>

      <!-- Bulk Actions -->
      <g transform="translate(0,425)">
        <rect x="0" y="0" width="370" height="100" fill="#1f2335" stroke="#7aa2f7" rx="4"/>
        <text x="10" y="15" class="accent-text" font-size="9">⚡ Bulk Actions</text>

        <g transform="translate(10,25)">
          <rect x="0" y="0" width="80" height="20" class="panel-bg" stroke="#9ece6a" rx="2"/>
          <text x="40" y="12" text-anchor="middle" class="success-text" font-size="7">Requeue All</text>

          <rect x="90" y="0" width="80" height="20" class="panel-bg" stroke="#bb9af7" rx="2"/>
          <text x="130" y="12" text-anchor="middle" class="accent-text" font-size="7">Edit & Fix</text>

          <rect x="180" y="0" width="80" height="20" class="panel-bg" stroke="#e0af68" rx="2"/>
          <text x="220" y="12" text-anchor="middle" class="warning-text" font-size="7">Archive</text>

          <rect x="270" y="0" width="80" height="20" class="panel-bg" stroke="#f7768e" rx="2"/>
          <text x="310" y="12" text-anchor="middle" class="danger-text" font-size="7">Purge</text>

          <g transform="translate(0,30)">
            <text x="0" y="15" class="secondary-text" font-size="8">Selection: 89 database timeout errors</text>
            <text x="0" y="27" class="secondary-text" font-size="8">Preview: Will retry with increased timeout (30s → 60s)</text>
            <text x="0" y="39" class="warning-text" font-size="8">⚠ Estimated processing time: 12 minutes</text>

            <rect x="0" y="45" width="160" height="15" class="panel-bg" stroke="#7aa2f7" rx="2"/>
            <text x="80" y="55" text-anchor="middle" class="secondary-text" font-size="7">Confirm Bulk Operation</text>
          </g>
        </g>
      </g>

      <!-- Timeline -->
      <g transform="translate(0,535)">
        <rect x="0" y="0" width="370" height="80" fill="#1f2335" stroke="#414868" rx="4"/>
        <text x="10" y="15" class="accent-text" font-size="9">📈 Failure Timeline (Last 24h)</text>

        <g transform="translate(10,25)">
          <rect x="0" y="0" width="350" height="40" fill="#16161e" stroke="#414868" rx="2"/>

          <!-- Timeline bars -->
          <rect x="10" y="5" width="8" height="30" fill="#f7768e"/>
          <rect x="25" y="10" width="8" height="25" fill="#e0af68"/>
          <rect x="40" y="15" width="8" height="20" fill="#7aa2f7"/>
          <rect x="55" y="8" width="8" height="27" fill="#f7768e"/>
          <rect x="70" y="12" width="8" height="23" fill="#e0af68"/>
          <!-- Continue pattern -->
          <rect x="300" y="20" width="8" height="15" fill="#9ece6a"/>
          <rect x="315" y="18" width="8" height="17" fill="#7aa2f7"/>
          <rect x="330" y="22" width="8" height="13" fill="#9ece6a"/>

          <!-- Time labels -->
          <text x="10" y="55" class="secondary-text" font-size="6">00:00</text>
          <text x="175" y="55" class="secondary-text" font-size="6">12:00</text>
          <text x="330" y="55" class="secondary-text" font-size="6">24:00</text>
        </g>
      </g>
    </g>

    <!-- Center Panel: Job Details & Editor -->
    <rect x="440" y="0" width="500" height="720" class="panel-bg" rx="6"/>

    <!-- Job Details Header -->
    <rect x="440" y="0" width="500" height="30" fill="#1f2335" rx="6"/>
    <text x="450" y="20" class="accent-text" font-size="10">📋 Selected Job Details & Payload Editor</text>

    <!-- Job Info -->
    <g transform="translate(450,40)">
      <text x="0" y="15" class="accent-text">Job Information</text>

      <g transform="translate(0,25)">
        <rect x="0" y="0" width="480" height="80" fill="#1f2335" stroke="#414868" rx="3"/>

        <g transform="translate(10,15)">
          <text x="0" y="0" class="secondary-text" font-size="8">Job ID:</text>
          <text x="80" y="0" class="primary-text" font-size="8">job_abc123def456ghi789</text>

          <text x="0" y="15" class="secondary-text" font-size="8">Queue:</text>
          <text x="80" y="15" class="primary-text" font-size="8">user-registration</text>

          <text x="0" y="30" class="secondary-text" font-size="8">Failed:</text>
          <text x="80" y="30" class="danger-text" font-size="8">2024-09-15T14:32:47.123Z (2m ago)</text>

          <text x="0" y="45" class="secondary-text" font-size="8">Attempts:</text>
          <text x="80" y="45" class="warning-text" font-size="8">3/3 (max reached)</text>

          <text x="0" y="60" class="secondary-text" font-size="8">Error:</text>
          <text x="80" y="60" class="danger-text" font-size="8">connection timeout after 30000ms</text>

          <text x="250" y="0" class="secondary-text" font-size="8">Priority:</text>
          <text x="320" y="0" class="warning-text" font-size="8">HIGH (8)</text>

          <text x="250" y="15" class="secondary-text" font-size="8">Worker:</text>
          <text x="320" y="15" class="primary-text" font-size="8">worker-07</text>

          <text x="250" y="30" class="secondary-text" font-size="8">Duration:</text>
          <text x="320" y="30" class="primary-text" font-size="8">30.1s</text>

          <text x="250" y="45" class="secondary-text" font-size="8">Size:</text>
          <text x="320" y="45" class="primary-text" font-size="8">1.2 KB</text>
        </g>
      </g>
    </g>

    <!-- Payload Editor -->
    <g transform="translate(450,150)">
      <text x="0" y="15" class="accent-text">Job Payload (Editable)</text>

      <g transform="translate(0,25)">
        <rect x="0" y="0" width="480" height="300" fill="#16161e" stroke="#414868" rx="3"/>

        <!-- JSON Editor -->
        <g transform="translate(10,15)" class="code-text">
          <text x="0" y="0" class="code-text">{</text>
          <text x="10" y="15" class="json-key">  "user_id"</text><text x="80" y="15" class="code-text">:</text><text x="90" y="15" class="json-number">12345</text><text x="130" y="15" class="code-text">,</text>
          <text x="10" y="30" class="json-key">  "email"</text><text x="80" y="30" class="code-text">:</text><text x="90" y="30" class="json-string">"user@example.com"</text><text x="200" y="30" class="code-text">,</text>
          <text x="10" y="45" class="json-key">  "action"</text><text x="80" y="45" class="code-text">:</text><text x="90" y="45" class="json-string">"register_user"</text><text x="190" y="45" class="code-text">,</text>
          <text x="10" y="60" class="json-key">  "timestamp"</text><text x="80" y="60" class="code-text">:</text><text x="90" y="60" class="json-string">"2024-09-15T14:32:15.234Z"</text><text x="260" y="60" class="code-text">,</text>
          <text x="10" y="75" class="json-key">  "metadata"</text><text x="80" y="75" class="code-text">: {</text>
          <text x="20" y="90" class="json-key">    "source"</text><text x="90" y="90" class="code-text">:</text><text x="100" y="90" class="json-string">"web_app"</text><text x="160" y="90" class="code-text">,</text>
          <text x="20" y="105" class="json-key">    "ip_address"</text><text x="90" y="105" class="code-text">:</text><text x="100" y="105" class="json-string">"192.168.1.100"</text><text x="200" y="105" class="code-text">,</text>
          <text x="20" y="120" class="json-key">    "user_agent"</text><text x="90" y="120" class="code-text">:</text><text x="100" y="120" class="json-string">"Mozilla/5.0..."</text><text x="200" y="120" class="code-text">,</text>

          <!-- Error location highlighted -->
          <rect x="15" y="130" width="440" height="15" fill="#2d1b1b" stroke="#f7768e" rx="2"/>
          <text x="20" y="142" class="json-key">    "db_connection"</text><text x="120" y="142" class="code-text">:</text><text x="130" y="142" class="json-string">"postgres://localhost:5432/prod"</text><text x="320" y="142" class="danger-text">← ERROR: timeout</text>

          <text x="10" y="157" class="code-text">  },</text>
          <text x="10" y="172" class="json-key">  "retry_count"</text><text x="80" y="172" class="code-text">:</text><text x="90" y="172" class="json-number">3</text><text x="110" y="172" class="code-text">,</text>
          <text x="10" y="187" class="json-key">  "max_retries"</text><text x="80" y="187" class="code-text">:</text><text x="90" y="187" class="json-number">3</text><text x="110" y="187" class="code-text">,</text>
          <text x="10" y="202" class="json-key">  "timeout_ms"</text><text x="80" y="202" class="code-text">:</text><text x="90" y="202" class="json-number">30000</text>
          <text x="0" y="217" class="code-text">}</text>

          <!-- Suggested fix overlay -->
          <rect x="200" y="230" width="250" height="50" fill="#1e441e" stroke="#9ece6a" rx="3"/>
          <text x="210" y="245" class="success-text" font-size="8">💡 Suggested Fix:</text>
          <text x="210" y="257" class="success-text" font-size="8">Change "timeout_ms": 30000 → 60000</text>
          <text x="210" y="269" class="success-text" font-size="8">Success rate with 60s timeout: 94%</text>
        </g>
      </g>

      <!-- Editor Actions -->
      <g transform="translate(0,335)">
        <rect x="0" y="0" width="80" height="20" class="panel-bg" stroke="#9ece6a" rx="2"/>
        <text x="40" y="12" text-anchor="middle" class="success-text" font-size="8">Apply Fix</text>

        <rect x="90" y="0" width="80" height="20" class="panel-bg" stroke="#7aa2f7" rx="2"/>
        <text x="130" y="12" text-anchor="middle" class="secondary-text" font-size="8">Validate</text>

        <rect x="180" y="0" width="80" height="20" class="panel-bg" stroke="#bb9af7" rx="2"/>
        <text x="220" y="12" text-anchor="middle" class="accent-text" font-size="8">Test Run</text>

        <rect x="270" y="0" width="80" height="20" class="panel-bg" stroke="#e0af68" rx="2"/>
        <text x="310" y="12" text-anchor="middle" class="warning-text" font-size="8">Reset</text>

        <rect x="360" y="0" width="80" height="20" class="panel-bg" stroke="#f7768e" rx="2"/>
        <text x="400" y="12" text-anchor="middle" class="danger-text" font-size="8">Discard</text>
      </g>
    </g>

    <!-- Stack Trace -->
    <g transform="translate(450,515)">
      <text x="0" y="15" class="accent-text">Stack Trace & Debug Info</text>

      <g transform="translate(0,25)">
        <rect x="0" y="0" width="480" height="150" fill="#1f2335" stroke="#414868" rx="3"/>

        <g transform="translate(10,15)" class="code-text">
          <text x="0" y="0" class="danger-text" font-size="8">Error: connection timeout</text>
          <text x="0" y="15" class="secondary-text" font-size="8">  at Database.connect (database.go:47:12)</text>
          <text x="0" y="30" class="secondary-text" font-size="8">  at UserService.Register (user_service.go:89:8)</text>
          <text x="0" y="45" class="secondary-text" font-size="8">  at Worker.Process (worker.go:156:4)</text>
          <text x="0" y="60" class="secondary-text" font-size="8">  at Queue.ExecuteJob (queue.go:234:2)</text>

          <text x="0" y="85" class="accent-text" font-size="8">Environment:</text>
          <text x="0" y="100" class="secondary-text" font-size="8">  Worker: worker-07 (us-east-1a)</text>
          <text x="0" y="115" class="secondary-text" font-size="8">  Memory: 145MB / 512MB</text>
          <text x="0" y="130" class="secondary-text" font-size="8">  Load: 0.87, 1.23, 1.45</text>

          <text x="250" y="0" class="accent-text" font-size="8">Similar Failures:</text>
          <text x="250" y="15" class="secondary-text" font-size="8">  89 jobs with same error</text>
          <text x="250" y="30" class="secondary-text" font-size="8">  Last 4h: 67 failures</text>
          <text x="250" y="45" class="secondary-text" font-size="8">  Pattern: Peak hours</text>
          <text x="250" y="60" class="secondary-text" font-size="8">  Fix success rate: 94%</text>
        </g>
      </g>
    </g>
    </rect>

    <!-- Right Panel: Actions & Analytics -->
    <rect x="960" y="0" width="420" height="720" class="panel-bg" rx="6"/>

    <!-- Actions Header -->
    <rect x="960" y="0" width="420" height="30" fill="#1f2335" rx="6"/>
    <text x="970" y="20" class="accent-text" font-size="10">⚡ Remediation Actions & Analytics</text>

    <!-- Quick Actions -->
    <g transform="translate(970,40)">
      <text x="0" y="15" class="accent-text">Quick Actions</text>

      <g transform="translate(0,25)">
        <rect x="0" y="0" width="180" height="25" class="panel-bg" stroke="#9ece6a" rx="3"/>
        <text x="90" y="16" text-anchor="middle" class="success-text" font-size="8">🔄 Requeue Selected (89)</text>

        <rect x="190" y="0" width="200" height="25" class="panel-bg" stroke="#bb9af7" rx="3"/>
        <text x="290" y="16" text-anchor="middle" class="accent-text" font-size="8">🧠 Smart Batch Remediate</text>

        <rect x="0" y="35" width="180" height="25" class="panel-bg" stroke="#e0af68" rx="3"/>
        <text x="90" y="51" text-anchor="middle" class="warning-text" font-size="8">📦 Archive Pattern</text>

        <rect x="190" y="35" width="200" height="25" class="panel-bg" stroke="#f7768e" rx="3"/>
        <text x="290" y="51" text-anchor="middle" class="danger-text" font-size="8">🗑 Purge Similar Jobs</text>

        <rect x="0" y="70" width="390" height="25" class="panel-bg" stroke="#7aa2f7" rx="3"/>
        <text x="195" y="86" text-anchor="middle" class="secondary-text" font-size="8">📊 Export Analysis Report (CSV/JSON)</text>
      </g>
    </g>

    <!-- Success Rate Metrics -->
    <g transform="translate(970,155)">
      <text x="0" y="15" class="accent-text">Remediation Success Rates</text>

      <g transform="translate(0,25)">
        <rect x="0" y="0" width="400" height="120" fill="#1f2335" stroke="#414868" rx="3"/>

        <!-- Success rate bars -->
        <g transform="translate(20,20)">
          <text x="0" y="15" class="secondary-text" font-size="8">Auto-fix DB Timeout</text>
          <rect x="150" y="5" width="200" height="12" fill="#16161e" stroke="#414868" rx="6"/>
          <rect x="150" y="5" width="188" height="12" fill="#9ece6a" rx="6"/>
          <text x="360" y="14" class="success-text" font-size="8">94%</text>

          <text x="0" y="35" class="secondary-text" font-size="8">JSON Payload Fix</text>
          <rect x="150" y="25" width="200" height="12" fill="#16161e" stroke="#414868" rx="6"/>
          <rect x="150" y="25" width="174" height="12" fill="#9ece6a" rx="6"/>
          <text x="360" y="34" class="success-text" font-size="8">87%</text>

          <text x="0" y="55" class="secondary-text" font-size="8">Rate Limit Retry</text>
          <rect x="150" y="45" width="200" height="12" fill="#16161e" stroke="#414868" rx="6"/>
          <rect x="150" y="45" width="156" height="12" fill="#e0af68" rx="6"/>
          <text x="360" y="54" class="warning-text" font-size="8">78%</text>

          <text x="0" y="75" class="secondary-text" font-size="8">Manual Review</text>
          <rect x="150" y="65" width="200" height="12" fill="#16161e" stroke="#414868" rx="6"/>
          <rect x="150" y="65" width="120" height="12" fill="#7aa2f7" rx="6"/>
          <text x="360" y="74" class="secondary-text" font-size="8">60%</text>

          <text x="0" y="95" class="accent-text" font-size="8">Overall Success Rate: 89%</text>
        </g>
      </g>
    </g>

    <!-- Automated Rules -->
    <g transform="translate(970,295)">
      <text x="0" y="15" class="accent-text">Automated Remediation Rules</text>

      <g transform="translate(0,25)">
        <rect x="0" y="0" width="400" height="200" fill="#1f2335" stroke="#414868" rx="3"/>

        <g transform="translate(10,15)">
          <!-- Rule 1 -->
          <rect x="0" y="0" width="380" height="35" fill="#1e441e" stroke="#9ece6a" rx="2"/>
          <text x="10" y="15" class="success-text" font-size="8">✓ DB Timeout → Increase timeout to 60s + retry</text>
          <text x="10" y="27" class="secondary-text" font-size="7">Triggers: "connection timeout" • Success: 94% • Applied: 247 times</text>

          <!-- Rule 2 -->
          <rect x="0" y="40" width="380" height="35" fill="#443822" stroke="#e0af68" rx="2"/>
          <text x="10" y="55" class="warning-text" font-size="8">⚠ JSON Parse Error → Schema validation + format</text>
          <text x="10" y="67" class="secondary-text" font-size="7">Triggers: "unexpected token" • Success: 87% • Applied: 134 times</text>

          <!-- Rule 3 -->
          <rect x="0" y="80" width="380" height="35" fill="#1e3a44" stroke="#7aa2f7" rx="2"/>
          <text x="10" y="95" class="secondary-text" font-size="8">ℹ Rate Limit → Exponential backoff + jitter</text>
          <text x="10" y="107" class="secondary-text" font-size="7">Triggers: "429 Too Many" • Success: 78% • Applied: 89 times</text>

          <!-- Add Rule -->
          <rect x="0" y="125" width="380" height="25" class="panel-bg" stroke="#bb9af7" rx="2"/>
          <text x="190" y="140" text-anchor="middle" class="accent-text" font-size="8">+ Add Custom Rule</text>

          <g transform="translate(0,160)">
            <text x="0" y="0" class="secondary-text" font-size="8">Rule Performance (Last 30 days):</text>
            <text x="0" y="12" class="success-text" font-size="8">• 470 jobs automatically fixed</text>
            <text x="0" y="24" class="secondary-text" font-size="8">• 89% average success rate</text>
            <text x="200" y="12" class="warning-text" font-size="8">• 67 manual reviews needed</text>
            <text x="200" y="24" class="secondary-text" font-size="8">• 12h avg resolution time</text>
          </g>
        </g>
      </g>
    </g>

    <!-- Recent Activity -->
    <g transform="translate(970,515)">
      <text x="0" y="15" class="accent-text">Recent Activity</text>

      <g transform="translate(0,25)">
        <rect x="0" y="0" width="400" height="180" fill="#1f2335" stroke="#414868" rx="3"/>

        <g transform="translate(10,15)">
          <!-- Activity 1 -->
          <g>
            <circle cx="5" cy="5" r="3" fill="#9ece6a"/>
            <text x="15" y="8" class="success-text" font-size="8">14:35 - Auto-fixed 23 DB timeout jobs</text>
            <text x="15" y="20" class="secondary-text" font-size="7">Applied timeout increase rule • Success rate: 100%</text>
          </g>

          <!-- Activity 2 -->
          <g transform="translate(0,30)">
            <circle cx="5" cy="5" r="3" fill="#7aa2f7"/>
            <text x="15" y="8" class="secondary-text" font-size="8">14:32 - New pattern detected: API version mismatch</text>
            <text x="15" y="20" class="secondary-text" font-size="7">12 failures • Suggested rule: Update API version in payload</text>
          </g>

          <!-- Activity 3 -->
          <g transform="translate(0,60)">
            <circle cx="5" cy="5" r="3" fill="#e0af68"/>
            <text x="15" y="8" class="warning-text" font-size="8">14:28 - Manual review required: Unknown error type</text>
            <text x="15" y="20" class="secondary-text" font-size="7">5 jobs • Error: "invalid certificate chain" • Escalated to ops</text>
          </g>

          <!-- Activity 4 -->
          <g transform="translate(0,90)">
            <circle cx="5" cy="5" r="3" fill="#bb9af7"/>
            <text x="15" y="8" class="accent-text" font-size="8">14:25 - Bulk remediation completed</text>
            <text x="15" y="20" class="secondary-text" font-size="7">89 JSON parsing errors fixed • 87% success rate • 3 failed</text>
          </g>

          <!-- Activity 5 -->
          <g transform="translate(0,120)">
            <circle cx="5" cy="5" r="3" fill="#f7768e"/>
            <text x="15" y="8" class="danger-text" font-size="8">14:20 - Critical: New failure spike detected</text>
            <text x="15" y="20" class="secondary-text" font-size="7">67 jobs failed in 5 minutes • Pattern: External API down</text>
          </g>

          <g transform="translate(0,150)">
            <rect x="0" y="0" width="200" height="15" class="panel-bg" stroke="#7aa2f7" rx="2"/>
            <text x="100" y="10" text-anchor="middle" class="secondary-text" font-size="7">View Full Activity Log</text>
          </g>
        </g>
      </g>
    </g>
  </g>
</svg>