<svg viewBox="0 0 1600 900" xmlns="http://www.w3.org/2000/svg">
  <defs>
    <style>
      .ultrawide-bg { fill: #1a1b26; }
      .panel-bg { fill: #24283b; stroke: #414868; stroke-width: 1; }
      .sidebar-bg { fill: #16161e; }
      .header-bg { fill: #1f2335; }
      .primary-text { fill: #c0caf5; font-family: Monaco, monospace; font-size: 9px; }
      .secondary-text { fill: #7aa2f7; font-family: Monaco, monospace; font-size: 8px; }
      .accent-text { fill: #bb9af7; font-family: Monaco, monospace; font-size: 9px; }
      .danger-text { fill: #f7768e; font-family: Monaco, monospace; font-size: 8px; }
      .success-text { fill: #9ece6a; font-family: Monaco, monospace; font-size: 8px; }
      .warning-text { fill: #e0af68; font-family: Monaco, monospace; font-size: 8px; }
      .nav-active { fill: #7aa2f7; stroke: #7aa2f7; }
      .nav-inactive { fill: #414868; }
    </style>
  </defs>

  <!-- Background -->
  <rect width="1600" height="900" class="ultrawide-bg"/>

  <!-- Header -->
  <rect x="0" y="0" width="1600" height="40" class="header-bg"/>
  <text x="220" y="15" class="primary-text">🚀 Redis Work Queue - Mission Control Dashboard</text>
  <text x="220" y="30" class="secondary-text">Multi-Cluster Production Environment • 3 regions • 45 workers • 3,847 jobs/min</text>

  <!-- Global Status Indicators -->
  <g transform="translate(1400,5)">
    <circle cx="10" cy="10" r="5" fill="#9ece6a"/>
    <text x="20" y="14" class="success-text">PROD</text>

    <circle cx="60" cy="10" r="5" fill="#7aa2f7"/>
    <text x="70" y="14" class="secondary-text">STAGING</text>

    <circle cx="130" cy="10" r="5" fill="#e0af68"/>
    <text x="140" y="14" class="warning-text">DEV</text>

    <text x="10" y="30" class="secondary-text">⌘P Commands • 🎤 Voice • 📊 Analytics</text>
  </g>

  <!-- Left Sidebar Navigation -->
  <rect x="0" y="40" width="200" height="860" class="sidebar-bg"/>

  <!-- Navigation Groups -->
  <g transform="translate(10,50)">
    <!-- Queue Management Group -->
    <text x="0" y="15" class="accent-text">QUEUE MANAGEMENT</text>
    <rect x="0" y="20" width="180" height="25" class="nav-active" rx="3"/>
    <text x="10" y="35" class="primary-text">📋 Queue Overview</text>

    <rect x="0" y="50" width="180" height="25" class="nav-inactive" rx="3"/>
    <text x="10" y="65" class="secondary-text">👥 Worker Fleet</text>

    <rect x="0" y="75" width="180" height="25" class="nav-inactive" rx="3"/>
    <text x="10" y="90" class="secondary-text">💀 Dead Letter Queue</text>
    <circle cx="165" cy="87" r="6" fill="#f7768e"/>
    <text x="165" y="90" text-anchor="middle" class="primary-text" font-size="7">23</text>

    <rect x="0" y="100" width="180" height="25" class="nav-inactive" rx="3"/>
    <text x="10" y="115" class="secondary-text">📊 Performance</text>

    <!-- Debug & Monitoring -->
    <text x="0" y="150" class="accent-text">DEBUG & MONITORING</text>
    <rect x="0" y="155" width="180" height="25" class="nav-inactive" rx="3"/>
    <text x="10" y="170" class="secondary-text">⏰ Time Travel Debug</text>

    <rect x="0" y="180" width="180" height="25" class="nav-inactive" rx="3"/>
    <text x="10" y="195" class="secondary-text">🔍 Trace Viewer</text>

    <rect x="0" y="205" width="180" height="25" class="nav-inactive" rx="3"/>
    <text x="10" y="220" class="secondary-text">📈 Analytics</text>

    <rect x="0" y="230" width="180" height="25" class="nav-inactive" rx="3"/>
    <text x="10" y="245" class="secondary-text">⚠ Anomaly Radar</text>

    <!-- Workflow Tools -->
    <text x="0" y="280" class="accent-text">WORKFLOW TOOLS</text>
    <rect x="0" y="285" width="180" height="25" class="nav-inactive" rx="3"/>
    <text x="10" y="300" class="secondary-text">🎛 DAG Builder</text>

    <rect x="0" y="310" width="180" height="25" class="nav-inactive" rx="3"/>
    <text x="10" y="325" class="secondary-text">🌶 JSON Studio</text>

    <rect x="0" y="335" width="180" height="25" class="nav-inactive" rx="3"/>
    <text x="10" y="350" class="secondary-text">🔧 Load Generator</text>

    <!-- Platform -->
    <text x="0" y="385" class="accent-text">PLATFORM</text>
    <rect x="0" y="390" width="180" height="25" class="nav-inactive" rx="3"/>
    <text x="10" y="405" class="secondary-text">🌐 Multi-Cluster</text>

    <rect x="0" y="415" width="180" height="25" class="nav-inactive" rx="3"/>
    <text x="10" y="430" class="secondary-text">🔌 Plugins</text>

    <rect x="0" y="440" width="180" height="25" class="nav-inactive" rx="3"/>
    <text x="10" y="455" class="secondary-text">🔗 Event Hooks</text>

    <rect x="0" y="465" width="180" height="25" class="nav-inactive" rx="3"/>
    <text x="10" y="480" class="secondary-text">⚙ Settings</text>

    <!-- Voice Commands Panel -->
    <g transform="translate(0,520)">
      <rect x="0" y="0" width="180" height="120" class="panel-bg" rx="4"/>
      <text x="10" y="15" class="accent-text">🎤 Voice Commands</text>
      <rect x="10" y="20" width="160" height="20" fill="#1f2335" rx="2"/>
      <text x="90" y="32" text-anchor="middle" class="secondary-text">Listening...</text>

      <text x="10" y="50" class="secondary-text" font-size="7">Try saying:</text>
      <text x="10" y="65" class="primary-text" font-size="7">"Show queue health"</text>
      <text x="10" y="77" class="primary-text" font-size="7">"Drain worker 3"</text>
      <text x="10" y="89" class="primary-text" font-size="7">"Switch to staging"</text>
      <text x="10" y="101" class="primary-text" font-size="7">"Start benchmark"</text>
    </g>

    <!-- System Status -->
    <g transform="translate(0,650)">
      <rect x="0" y="0" width="180" height="100" class="panel-bg" rx="4"/>
      <text x="10" y="15" class="accent-text">System Status</text>

      <g transform="translate(10,25)">
        <text x="0" y="0" class="success-text" font-size="7">🟢 All systems operational</text>
        <text x="0" y="12" class="secondary-text" font-size="7">CPU: 23% • Memory: 67%</text>
        <text x="0" y="24" class="secondary-text" font-size="7">Network: 4.2MB/s</text>
        <text x="0" y="36" class="secondary-text" font-size="7">Uptime: 99.97%</text>
        <text x="0" y="48" class="secondary-text" font-size="7">Last deploy: 2h ago</text>
        <text x="0" y="60" class="secondary-text" font-size="7">Next maintenance: Wed 2AM</text>
      </g>
    </g>
  </g>

  <!-- Main Content Area -->
  <g transform="translate(200,40)">
    <!-- Queue Management Dashboard (4-panel layout) -->

    <!-- Top Left: Queue Table -->
    <rect x="10" y="10" width="450" height="400" class="panel-bg" rx="4"/>
    <rect x="10" y="10" width="450" height="30" fill="#1f2335" rx="4"/>
    <text x="20" y="28" class="accent-text">Production Queues (us-east-1)</text>

    <!-- Filter and actions -->
    <g transform="translate(20,45)">
      <rect x="0" y="0" width="150" height="18" fill="#1f2335" stroke="#414868" rx="2"/>
      <text x="5" y="12" class="secondary-text" font-size="8">🔍 Filter queues...</text>

      <rect x="160" y="0" width="40" height="18" class="panel-bg" stroke="#7aa2f7" rx="2"/>
      <text x="180" y="12" text-anchor="middle" class="secondary-text" font-size="8">Peek</text>

      <rect x="210" y="0" width="50" height="18" class="panel-bg" stroke="#9ece6a" rx="2"/>
      <text x="235" y="12" text-anchor="middle" class="success-text" font-size="8">Bench</text>

      <rect x="270" y="0" width="60" height="18" class="panel-bg" stroke="#bb9af7" rx="2"/>
      <text x="300" y="12" text-anchor="middle" class="accent-text" font-size="8">Enqueue</text>

      <rect x="340" y="0" width="80" height="18" class="panel-bg" stroke="#e0af68" rx="2"/>
      <text x="380" y="12" text-anchor="middle" class="warning-text" font-size="8">Bulk Actions</text>
    </g>

    <!-- Table header -->
    <g transform="translate(20,75)">
      <text x="0" y="12" class="accent-text" font-size="8">Queue</text>
      <text x="100" y="12" class="accent-text" font-size="8">Jobs</text>
      <text x="140" y="12" class="accent-text" font-size="8">Workers</text>
      <text x="190" y="12" class="accent-text" font-size="8">Rate/min</text>
      <text x="240" y="12" class="accent-text" font-size="8">Health</text>
      <text x="280" y="12" class="accent-text" font-size="8">Trend</text>
      <text x="320" y="12" class="accent-text" font-size="8">Sparkline</text>
      <text x="400" y="12" class="accent-text" font-size="8">Actions</text>
    </g>

    <!-- Table rows with sparklines -->
    <g transform="translate(20,90)">
      <!-- High Priority (Selected) -->
      <rect x="0" y="0" width="430" height="18" fill="#2d3561" rx="2"/>
      <text x="5" y="12" class="primary-text" font-size="8">high-priority</text>
      <text x="100" y="12" class="primary-text" font-size="8">2,451</text>
      <text x="140" y="12" class="success-text" font-size="8">12/15</text>
      <text x="190" y="12" class="success-text" font-size="8">+234</text>
      <text x="240" y="12" class="success-text" font-size="8">●</text>
      <text x="280" y="12" class="success-text" font-size="8">↗↗</text>
      <!-- Mini sparkline -->
      <polyline points="320,10 330,8 340,6 350,5 360,4 370,3 380,2"
                fill="none" stroke="#7aa2f7" stroke-width="1"/>
      <text x="400" y="12" class="secondary-text" font-size="8">⚡📊🔧</text>

      <!-- More rows... -->
      <rect x="0" y="22" width="430" height="18" fill="transparent"/>
      <text x="5" y="34" class="primary-text" font-size="8">normal-priority</text>
      <text x="100" y="34" class="primary-text" font-size="8">627</text>
      <text x="140" y="34" class="success-text" font-size="8">8/10</text>
      <text x="190" y="34" class="success-text" font-size="8">+89</text>
      <text x="240" y="34" class="success-text" font-size="8">●</text>
      <text x="280" y="34" class="success-text" font-size="8">↗</text>
      <polyline points="320,32 330,30 340,28 350,27 360,26 370,25 380,24"
                fill="none" stroke="#9ece6a" stroke-width="1"/>
      <text x="400" y="34" class="secondary-text" font-size="8">⚡📊🔧</text>

      <!-- Continue pattern for more queues... -->
    </g>

    <!-- Selected queue details -->
    <g transform="translate(20,300)">
      <rect x="0" y="0" width="430" height="100" fill="#1f2335" stroke="#414868" rx="3"/>
      <text x="10" y="15" class="accent-text" font-size="9">Selected: high-priority</text>

      <g transform="translate(10,25)">
        <text x="0" y="0" class="secondary-text" font-size="8">Config: Max workers: 15 (12 active) • TTL: 24h • Priority: 10</text>
        <text x="0" y="15" class="secondary-text" font-size="8">Retry: Exponential backoff, 3 max attempts</text>
        <text x="0" y="30" class="secondary-text" font-size="8">Recent: ✓ Job ABC123 (2.3s) ✓ Job DEF456 (1.8s) ⚠ Job GHI789 retry 2/3</text>
        <text x="0" y="45" class="secondary-text" font-size="8">Performance: Avg 1.9s, P95: 4.2s, P99: 8.1s</text>

        <g transform="translate(0,55)">
          <rect x="0" y="0" width="200" height="12" fill="#16161e" stroke="#414868" rx="6"/>
          <rect x="0" y="0" width="160" height="12" fill="#7aa2f7" rx="6"/>
          <text x="210" y="9" class="secondary-text" font-size="8">80% utilization</text>
        </g>
      </g>
    </g>

    <!-- Top Right: Real-time Charts -->
    <rect x="480" y="10" width="460" height="400" class="panel-bg" rx="4"/>
    <rect x="480" y="10" width="460" height="30" fill="#1f2335" rx="4"/>
    <text x="490" y="28" class="accent-text">Real-time Performance Metrics</text>

    <!-- Chart controls -->
    <g transform="translate(820,15)">
      <rect x="0" y="0" width="30" height="15" class="panel-bg" stroke="#7aa2f7" rx="2"/>
      <text x="15" y="10" text-anchor="middle" class="secondary-text" font-size="7">1h</text>

      <rect x="35" y="0" width="30" height="15" class="panel-bg" stroke="#565f89" rx="2"/>
      <text x="50" y="10" text-anchor="middle" class="secondary-text" font-size="7">6h</text>

      <rect x="70" y="0" width="30" height="15" class="panel-bg" stroke="#9ece6a" rx="2"/>
      <text x="85" y="10" text-anchor="middle" class="success-text" font-size="7">🔄</text>
    </g>

    <!-- Main performance chart -->
    <g transform="translate(490,50)">
      <text x="0" y="12" class="accent-text" font-size="9">Throughput (Jobs/minute)</text>
      <rect x="0" y="20" width="440" height="120" fill="#1f2335" stroke="#414868" rx="3"/>

      <!-- Chart grid -->
      <g stroke="#414868" stroke-width="0.5" opacity="0.3">
        <line x1="0" y1="140" x2="440" y2="140"/>
        <line x1="0" y1="110" x2="440" y2="110"/>
        <line x1="0" y1="80" x2="440" y2="80"/>
        <line x1="0" y1="50" x2="440" y2="50"/>
        <line x1="0" y1="20" x2="440" y2="20"/>
      </g>

      <!-- Multiple data series -->
      <polyline points="20,130 60,120 100,110 140,100 180,95 220,90 260,85 300,80 340,75 380,70 420,65"
                fill="none" stroke="#7aa2f7" stroke-width="2"/>
      <polyline points="20,135 60,130 100,125 140,122 180,118 220,115 260,112 300,108 340,105 380,102 420,98"
                fill="none" stroke="#9ece6a" stroke-width="2"/>
      <polyline points="20,138 60,136 100,134 140,132 180,130 220,128 260,126 300,124 340,122 380,120 420,118"
                fill="none" stroke="#bb9af7" stroke-width="2"/>

      <!-- Y-axis labels -->
      <text x="5" y="25" class="secondary-text" font-size="7">3000</text>
      <text x="5" y="55" class="secondary-text" font-size="7">2000</text>
      <text x="5" y="85" class="secondary-text" font-size="7">1000</text>
      <text x="5" y="115" class="secondary-text" font-size="7">500</text>
      <text x="5" y="145" class="secondary-text" font-size="7">0</text>
    </g>

    <!-- System resource gauges -->
    <g transform="translate(490,170)">
      <text x="0" y="12" class="accent-text" font-size="9">System Resources</text>

      <!-- CPU gauge -->
      <g transform="translate(0,20)">
        <text x="0" y="12" class="secondary-text" font-size="8">CPU</text>
        <circle cx="60" cy="30" r="20" fill="none" stroke="#414868" stroke-width="3"/>
        <circle cx="60" cy="30" r="20" fill="none" stroke="#7aa2f7" stroke-width="3"
                stroke-dasharray="94,31" transform="rotate(-90,60,30)"/>
        <text x="60" y="35" text-anchor="middle" class="secondary-text" font-size="8">75%</text>
      </g>

      <!-- Memory gauge -->
      <g transform="translate(120,20)">
        <text x="0" y="12" class="secondary-text" font-size="8">Memory</text>
        <circle cx="60" cy="30" r="20" fill="none" stroke="#414868" stroke-width="3"/>
        <circle cx="60" cy="30" r="20" fill="none" stroke="#9ece6a" stroke-width="3"
                stroke-dasharray="75,50" transform="rotate(-90,60,30)"/>
        <text x="60" y="35" text-anchor="middle" class="success-text" font-size="8">60%</text>
      </g>

      <!-- Network gauge -->
      <g transform="translate(240,20)">
        <text x="0" y="12" class="secondary-text" font-size="8">Network</text>
        <circle cx="60" cy="30" r="20" fill="none" stroke="#414868" stroke-width="3"/>
        <circle cx="60" cy="30" r="20" fill="none" stroke="#bb9af7" stroke-width="3"
                stroke-dasharray="50,75" transform="rotate(-90,60,30)"/>
        <text x="60" y="35" text-anchor="middle" class="accent-text" font-size="8">40%</text>
      </g>
    </g>

    <!-- Alert timeline -->
    <g transform="translate(490,290)">
      <text x="0" y="12" class="accent-text" font-size="9">Recent Activity Timeline</text>
      <rect x="0" y="20" width="440" height="100" fill="#1f2335" stroke="#414868" rx="3"/>

      <g transform="translate(10,35)">
        <!-- Timeline items -->
        <g>
          <circle cx="5" cy="5" r="3" fill="#f7768e"/>
          <text x="15" y="8" class="danger-text" font-size="8">14:32 - Worker-7 crashed (high-priority queue)</text>
        </g>
        <g transform="translate(0,20)">
          <circle cx="5" cy="5" r="3" fill="#e0af68"/>
          <text x="15" y="8" class="warning-text" font-size="8">14:30 - Memory usage threshold exceeded on redis-01</text>
        </g>
        <g transform="translate(0,40)">
          <circle cx="5" cy="5" r="3" fill="#7aa2f7"/>
          <text x="15" y="8" class="secondary-text" font-size="8">14:25 - Benchmark completed: 1000 jobs in 4m 23s</text>
        </g>
        <g transform="translate(0,60)">
          <circle cx="5" cy="5" r="3" fill="#9ece6a"/>
          <text x="15" y="8" class="success-text" font-size="8">14:20 - Auto-scaling: Added 3 workers to normal-priority</text>
        </g>
      </g>
    </g>

    <!-- Bottom Left: Multi-Cluster Comparison -->
    <rect x="10" y="430" width="450" height="420" class="panel-bg" rx="4"/>
    <rect x="10" y="430" width="450" height="30" fill="#1f2335" rx="4"/>
    <text x="20" y="448" class="accent-text">Multi-Cluster Comparison</text>

    <!-- Cluster tabs -->
    <g transform="translate(20,465)">
      <rect x="0" y="0" width="80" height="20" class="nav-active" rx="3"/>
      <text x="40" y="13" text-anchor="middle" class="primary-text" font-size="8">Production</text>

      <rect x="85" y="0" width="80" height="20" class="nav-inactive" rx="3"/>
      <text x="125" y="13" text-anchor="middle" class="secondary-text" font-size="8">Staging</text>

      <rect x="170" y="0" width="80" height="20" class="nav-inactive" rx="3"/>
      <text x="210" y="13" text-anchor="middle" class="secondary-text" font-size="8">Development</text>

      <rect x="300" y="0" width="120" height="20" class="panel-bg" stroke="#7aa2f7" rx="3"/>
      <text x="360" y="13" text-anchor="middle" class="secondary-text" font-size="8">Compare All</text>
    </g>

    <!-- Cluster comparison grid -->
    <g transform="translate(20,495)">
      <rect x="0" y="0" width="430" height="340" fill="#1f2335" stroke="#414868" rx="3"/>

      <!-- Headers -->
      <g transform="translate(10,20)">
        <text x="0" y="0" class="accent-text" font-size="8">Metric</text>
        <text x="120" y="0" class="accent-text" font-size="8">Production</text>
        <text x="200" y="0" class="accent-text" font-size="8">Staging</text>
        <text x="280" y="0" class="accent-text" font-size="8">Development</text>
        <text x="360" y="0" class="accent-text" font-size="8">Diff</text>
      </g>

      <!-- Comparison rows -->
      <g transform="translate(10,40)">
        <text x="0" y="0" class="primary-text" font-size="8">Total Jobs</text>
        <text x="120" y="0" class="success-text" font-size="8">3,847</text>
        <text x="200" y="0" class="secondary-text" font-size="8">1,234</text>
        <text x="280" y="0" class="secondary-text" font-size="8">456</text>
        <text x="360" y="0" class="success-text" font-size="8">+211%</text>

        <text x="0" y="20" class="primary-text" font-size="8">Active Workers</text>
        <text x="120" y="20" class="success-text" font-size="8">45</text>
        <text x="200" y="20" class="secondary-text" font-size="8">15</text>
        <text x="280" y="20" class="secondary-text" font-size="8">8</text>
        <text x="360" y="20" class="success-text" font-size="8">+200%</text>

        <text x="0" y="40" class="primary-text" font-size="8">Error Rate</text>
        <text x="120" y="40" class="success-text" font-size="8">0.8%</text>
        <text x="200" y="40" class="warning-text" font-size="8">2.3%</text>
        <text x="280" y="40" class="danger-text" font-size="8">5.1%</text>
        <text x="360" y="40" class="danger-text" font-size="8">+187%</text>

        <text x="0" y="60" class="primary-text" font-size="8">Avg Latency</text>
        <text x="120" y="60" class="success-text" font-size="8">1.9s</text>
        <text x="200" y="60" class="secondary-text" font-size="8">2.1s</text>
        <text x="280" y="60" class="warning-text" font-size="8">3.4s</text>
        <text x="360" y="60" class="warning-text" font-size="8">+79%</text>

        <text x="0" y="80" class="primary-text" font-size="8">Memory Usage</text>
        <text x="120" y="80" class="warning-text" font-size="8">84%</text>
        <text x="200" y="80" class="success-text" font-size="8">67%</text>
        <text x="280" y="80" class="success-text" font-size="8">45%</text>
        <text x="360" y="80" class="warning-text" font-size="8">+25%</text>
      </g>

      <!-- Cluster health visualization -->
      <g transform="translate(10,160)">
        <text x="0" y="0" class="accent-text" font-size="8">Cluster Health Matrix</text>

        <g transform="translate(0,20)">
          <!-- Production cluster -->
          <text x="0" y="15" class="success-text" font-size="8">Production</text>
          <g transform="translate(80,0)">
            <rect x="0" y="0" width="12" height="12" fill="#9ece6a" rx="1"/>
            <rect x="15" y="0" width="12" height="12" fill="#9ece6a" rx="1"/>
            <rect x="30" y="0" width="12" height="12" fill="#9ece6a" rx="1"/>
            <rect x="45" y="0" width="12" height="12" fill="#e0af68" rx="1"/>
            <rect x="60" y="0" width="12" height="12" fill="#9ece6a" rx="1"/>
          </g>

          <!-- Staging cluster -->
          <text x="0" y="35" class="secondary-text" font-size="8">Staging</text>
          <g transform="translate(80,20)">
            <rect x="0" y="0" width="12" height="12" fill="#9ece6a" rx="1"/>
            <rect x="15" y="0" width="12" height="12" fill="#9ece6a" rx="1"/>
            <rect x="30" y="0" width="12" height="12" fill="#565f89" rx="1"/>
            <rect x="45" y="0" width="12" height="12" fill="#565f89" rx="1"/>
            <rect x="60" y="0" width="12" height="12" fill="#565f89" rx="1"/>
          </g>

          <!-- Development cluster -->
          <text x="0" y="55" class="secondary-text" font-size="8">Development</text>
          <g transform="translate(80,40)">
            <rect x="0" y="0" width="12" height="12" fill="#9ece6a" rx="1"/>
            <rect x="15" y="0" width="12" height="12" fill="#f7768e" rx="1"/>
            <rect x="30" y="0" width="12" height="12" fill="#565f89" rx="1"/>
            <rect x="45" y="0" width="12" height="12" fill="#565f89" rx="1"/>
            <rect x="60" y="0" width="12" height="12" fill="#565f89" rx="1"/>
          </g>
        </g>
      </g>

      <!-- Quick actions -->
      <g transform="translate(10,280)">
        <text x="0" y="0" class="accent-text" font-size="8">Quick Actions</text>

        <g transform="translate(0,15)">
          <rect x="0" y="0" width="80" height="18" class="panel-bg" stroke="#7aa2f7" rx="2"/>
          <text x="40" y="12" text-anchor="middle" class="secondary-text" font-size="8">Sync Config</text>

          <rect x="90" y="0" width="80" height="18" class="panel-bg" stroke="#9ece6a" rx="2"/>
          <text x="130" y="12" text-anchor="middle" class="success-text" font-size="8">Deploy All</text>

          <rect x="180" y="0" width="80" height="18" class="panel-bg" stroke="#e0af68" rx="2"/>
          <text x="220" y="12" text-anchor="middle" class="warning-text" font-size="8">Failover</text>

          <rect x="270" y="0" width="80" height="18" class="panel-bg" stroke="#bb9af7" rx="2"/>
          <text x="310" y="12" text-anchor="middle" class="accent-text" font-size="8">Compare</text>
        </g>
      </g>
    </g>

    <!-- Bottom Right: Plugin Dashboard -->
    <rect x="480" y="430" width="460" height="420" class="panel-bg" rx="4"/>
    <rect x="480" y="430" width="460" height="30" fill="#1f2335" rx="4"/>
    <text x="490" y="448" class="accent-text">Plugin Dashboard & Extensions</text>

    <!-- Plugin grid -->
    <g transform="translate(490,470)">
      <!-- Plugin 1: Custom Metrics -->
      <rect x="0" y="0" width="140" height="120" class="panel-bg" stroke="#7aa2f7" rx="3"/>
      <text x="10" y="15" class="accent-text" font-size="8">📊 Custom Metrics</text>
      <text x="10" y="30" class="secondary-text" font-size="7">Business KPI tracking</text>

      <g transform="translate(10,40)">
        <text x="0" y="0" class="primary-text" font-size="7">Conversion Rate: 23.4%</text>
        <text x="0" y="12" class="success-text" font-size="7">Revenue/Hour: $1,247</text>
        <text x="0" y="24" class="secondary-text" font-size="7">Orders: 89 pending</text>
        <text x="0" y="36" class="warning-text" font-size="7">Cart Abandon: 12%</text>
      </g>

      <g transform="translate(10,85)">
        <rect x="0" y="0" width="40" height="15" class="nav-active" rx="2"/>
        <text x="20" y="10" text-anchor="middle" class="primary-text" font-size="7">Active</text>
        <text x="50" y="10" class="success-text" font-size="7">v2.1.0</text>
      </g>

      <!-- Plugin 2: Slack Integration -->
      <rect x="150" y="0" width="140" height="120" class="panel-bg" stroke="#9ece6a" rx="3"/>
      <text x="160" y="15" class="accent-text" font-size="8">💬 Slack Alerts</text>
      <text x="160" y="30" class="secondary-text" font-size="7">Team notifications</text>

      <g transform="translate(160,40)">
        <text x="0" y="0" class="primary-text" font-size="7">Last Alert: 2m ago</text>
        <text x="0" y="12" class="secondary-text" font-size="7">Channel: #ops-alerts</text>
        <text x="0" y="24" class="success-text" font-size="7">✓ DLQ alert sent</text>
        <text x="0" y="36" class="secondary-text" font-size="7">Next check: 30s</text>
      </g>

      <g transform="translate(160,85)">
        <rect x="0" y="0" width="40" height="15" class="nav-active" rx="2"/>
        <text x="20" y="10" text-anchor="middle" class="primary-text" font-size="7">Active</text>
        <text x="50" y="10" class="success-text" font-size="7">v1.5.2</text>
      </g>

      <!-- Plugin 3: AI Predictor -->
      <rect x="300" y="0" width="140" height="120" class="panel-bg" stroke="#bb9af7" rx="3"/>
      <text x="310" y="15" class="accent-text" font-size="8">🤖 AI Predictor</text>
      <text x="310" y="30" class="secondary-text" font-size="7">Load forecasting</text>

      <g transform="translate(310,40)">
        <text x="0" y="0" class="primary-text" font-size="7">Next Hour: +15%</text>
        <text x="0" y="12" class="warning-text" font-size="7">Peak at 16:30</text>
        <text x="0" y="24" class="secondary-text" font-size="7">Confidence: 87%</text>
        <text x="0" y="36" class="accent-text" font-size="7">Suggest +2 workers</text>
      </g>

      <g transform="translate(310,85)">
        <rect x="0" y="0" width="40" height="15" class="nav-active" rx="2"/>
        <text x="20" y="10" text-anchor="middle" class="primary-text" font-size="7">Active</text>
        <text x="50" y="10" class="success-text" font-size="7">v0.8.1</text>
      </g>

      <!-- Plugin 4: Security Scanner -->
      <rect x="0" y="130" width="140" height="120" class="panel-bg" stroke="#e0af68" rx="3"/>
      <text x="10" y="145" class="accent-text" font-size="8">🔒 Security Scan</text>
      <text x="10" y="160" class="secondary-text" font-size="7">Payload analysis</text>

      <g transform="translate(10,170)">
        <text x="0" y="0" class="success-text" font-size="7">✓ No threats found</text>
        <text x="0" y="12" class="secondary-text" font-size="7">Scanned: 1,247 jobs</text>
        <text x="0" y="24" class="secondary-text" font-size="7">Last scan: 5m ago</text>
        <text x="0" y="36" class="success-text" font-size="7">System: Clean</text>
      </g>

      <g transform="translate(10,215)">
        <rect x="0" y="0" width="40" height="15" class="nav-active" rx="2"/>
        <text x="20" y="10" text-anchor="middle" class="primary-text" font-size="7">Active</text>
        <text x="50" y="10" class="success-text" font-size="7">v3.2.4</text>
      </g>

      <!-- Plugin 5: Custom Dashboard -->
      <rect x="150" y="130" width="140" height="120" class="panel-bg" stroke="#f7768e" rx="3"/>
      <text x="160" y="145" class="accent-text" font-size="8">📈 Custom View</text>
      <text x="160" y="160" class="secondary-text" font-size="7">Exec dashboard</text>

      <g transform="translate(160,170)">
        <text x="0" y="0" class="primary-text" font-size="7">SLA Compliance: 99.7%</text>
        <text x="0" y="12" class="success-text" font-size="7">Budget: On track</text>
        <text x="0" y="24" class="secondary-text" font-size="7">Cost/Job: $0.023</text>
        <text x="0" y="36" class="success-text" font-size="7">ROI: +23% YoY</text>
      </g>

      <g transform="translate(160,215)">
        <rect x="0" y="0" width="40" height="15" class="nav-active" rx="2"/>
        <text x="20" y="10" text-anchor="middle" class="primary-text" font-size="7">Active</text>
        <text x="50" y="10" class="success-text" font-size="7">v1.0.0</text>
      </g>

      <!-- Plugin Marketplace -->
      <rect x="300" y="130" width="140" height="120" class="panel-bg" stroke="#565f89" rx="3"/>
      <text x="310" y="145" class="accent-text" font-size="8">🛒 Marketplace</text>
      <text x="310" y="160" class="secondary-text" font-size="7">Browse extensions</text>

      <g transform="translate(310,170)">
        <text x="0" y="0" class="secondary-text" font-size="7">Available: 47 plugins</text>
        <text x="0" y="12" class="accent-text" font-size="7">Featured: GraphQL API</text>
        <text x="0" y="24" class="success-text" font-size="7">New: Prometheus Export</text>
        <text x="0" y="36" class="warning-text" font-size="7">Updates: 3 pending</text>
      </g>

      <g transform="translate(310,215)">
        <rect x="0" y="0" width="60" height="15" class="panel-bg" stroke="#7aa2f7" rx="2"/>
        <text x="30" y="10" text-anchor="middle" class="secondary-text" font-size="7">Browse</text>

        <rect x="70" y="0" width="60" height="15" class="panel-bg" stroke="#9ece6a" rx="2"/>
        <text x="100" y="10" text-anchor="middle" class="success-text" font-size="7">Update</text>
      </g>

      <!-- Plugin development tools -->
      <g transform="translate(0,270)">
        <text x="0" y="15" class="accent-text" font-size="8">Plugin Development</text>

        <rect x="0" y="25" width="100" height="18" class="panel-bg" stroke="#bb9af7" rx="2"/>
        <text x="50" y="37" text-anchor="middle" class="accent-text" font-size="8">New Plugin</text>

        <rect x="110" y="25" width="100" height="18" class="panel-bg" stroke="#7aa2f7" rx="2"/>
        <text x="160" y="37" text-anchor="middle" class="secondary-text" font-size="8">SDK Docs</text>

        <rect x="220" y="25" width="100" height="18" class="panel-bg" stroke="#9ece6a" rx="2"/>
        <text x="270" y="37" text-anchor="middle" class="success-text" font-size="8">Hot Reload</text>

        <rect x="330" y="25" width="100" height="18" class="panel-bg" stroke="#e0af68" rx="2"/>
        <text x="380" y="37" text-anchor="middle" class="warning-text" font-size="8">Test Suite</text>
      </g>
    </g>
  </g>

  <!-- Status Bar -->
  <rect x="0" y="860" width="1600" height="40" class="header-bg"/>
  <g transform="translate(0,860)">
    <!-- Left status -->
    <text x="20" y="15" class="secondary-text">Multi-Cluster Status: 🟢 PROD (99.7%) • 🟡 STAGING (97.2%) • 🟠 DEV (89.1%)</text>
    <text x="20" y="30" class="secondary-text">Global: 3,847 jobs/min • 68 workers • 4.2MB/s network • Next maintenance: Wed 2AM UTC</text>

    <!-- Center status -->
    <text x="800" y="15" text-anchor="middle" class="accent-text">🎯 Mission Control Active • AI Recommendations Enabled</text>
    <text x="800" y="30" text-anchor="middle" class="secondary-text">Voice Commands: Active • Plugin Ecosystem: 5 running • Analytics: Recording</text>

    <!-- Right status -->
    <text x="1580" y="15" text-anchor="end" class="secondary-text">admin@company.com • Help: ? • Commands: ⌘P</text>
    <text x="1580" y="30" text-anchor="end" class="secondary-text">Memory: 892MB • CPU: 1.2 cores • Uptime: 99.97%</text>
  </g>
</svg>