<svg viewBox="0 0 1400 800" xmlns="http://www.w3.org/2000/svg">
  <defs>
    <style>
      .fleet-bg { fill: #1a1b26; }
      .panel-bg { fill: #24283b; stroke: #414868; stroke-width: 1; }
      .header-bg { fill: #1f2335; }
      .worker-healthy { fill: #24283b; stroke: #9ece6a; stroke-width: 2; }
      .worker-degraded { fill: #24283b; stroke: #e0af68; stroke-width: 2; }
      .worker-error { fill: #24283b; stroke: #f7768e; stroke-width: 2; }
      .worker-idle { fill: #24283b; stroke: #565f89; stroke-width: 2; }
      .primary-text { fill: #c0caf5; font-family: Monaco, monospace; font-size: 9px; }
      .secondary-text { fill: #7aa2f7; font-family: Monaco, monospace; font-size: 8px; }
      .accent-text { fill: #bb9af7; font-family: Monaco, monospace; font-size: 9px; }
      .success-text { fill: #9ece6a; font-family: Monaco, monospace; font-size: 8px; }
      .warning-text { fill: #e0af68; font-family: Monaco, monospace; font-size: 8px; }
      .danger-text { fill: #f7768e; font-family: Monaco, monospace; font-size: 8px; }
      .idle-text { fill: #565f89; font-family: Monaco, monospace; font-size: 8px; }
    </style>
  </defs>

  <!-- Background -->
  <rect width="1400" height="800" class="fleet-bg"/>

  <!-- Header -->
  <rect x="0" y="0" width="1400" height="50" class="header-bg"/>
  <text x="20" y="20" class="accent-text" font-size="12">👥 Worker Fleet Management Dashboard</text>
  <text x="20" y="35" class="secondary-text">45 workers across 3 regions • 89% utilization • Auto-scaling: ENABLED • Health: 93% optimal</text>

  <!-- Global Fleet Controls -->
  <g transform="translate(1000,10)">
    <rect x="0" y="0" width="80" height="25" class="panel-bg" stroke="#9ece6a" rx="3"/>
    <text x="40" y="16" text-anchor="middle" class="success-text" font-size="8">🚀 Scale Up</text>

    <rect x="90" y="0" width="80" height="25" class="panel-bg" stroke="#e0af68" rx="3"/>
    <text x="130" y="16" text-anchor="middle" class="warning-text" font-size="8">🔄 Rolling Update</text>

    <rect x="180" y="0" width="100" height="25" class="panel-bg" stroke="#f7768e" rx="3"/>
    <text x="230" y="16" text-anchor="middle" class="danger-text" font-size="8">🛑 Emergency Stop</text>
  </g>

  <!-- Main Dashboard -->
  <g transform="translate(0,60)">
    <!-- Fleet Overview Grid -->
    <rect x="20" y="0" width="1360" height="200" class="panel-bg" rx="6"/>

    <!-- Fleet Header -->
    <rect x="20" y="0" width="1360" height="30" fill="#1f2335" rx="6"/>
    <text x="30" y="20" class="accent-text" font-size="10">🎯 Fleet Overview - Worker Health Matrix</text>

    <!-- Region Tabs -->
    <g transform="translate(30,35)">
      <rect x="0" y="0" width="100" height="25" class="worker-healthy" rx="3"/>
      <text x="50" y="16" text-anchor="middle" class="success-text" font-size="8">🌍 us-east-1</text>

      <rect x="110" y="0" width="100" height="25" class="panel-bg" stroke="#7aa2f7" rx="3"/>
      <text x="160" y="16" text-anchor="middle" class="secondary-text" font-size="8">🌍 us-west-2</text>

      <rect x="220" y="0" width="100" height="25" class="panel-bg" stroke="#bb9af7" rx="3"/>
      <text x="270" y="16" text-anchor="middle" class="accent-text" font-size="8">🌍 eu-central-1</text>

      <rect x="1200" y="0" width="120" height="25" class="panel-bg" stroke="#7aa2f7" rx="3"/>
      <text x="1260" y="16" text-anchor="middle" class="secondary-text" font-size="8">View All Regions</text>
    </g>

    <!-- Worker Grid (us-east-1) -->
    <g transform="translate(30,70)">
      <text x="0" y="15" class="success-text">US-East-1 Region (18 workers)</text>

      <!-- Row 1 -->
      <g transform="translate(0,25)">
        <!-- Worker 1 - Healthy -->
        <rect x="0" y="0" width="60" height="60" class="worker-healthy" rx="4"/>
        <text x="30" y="15" text-anchor="middle" class="success-text" font-size="8">W-01</text>
        <text x="30" y="28" text-anchor="middle" class="primary-text" font-size="7">ACTIVE</text>
        <text x="30" y="40" text-anchor="middle" class="success-text" font-size="7">87% CPU</text>
        <text x="30" y="52" text-anchor="middle" class="secondary-text" font-size="7">23 jobs/m</text>
        <circle cx="50" cy="10" r="4" fill="#9ece6a"/>

        <!-- Worker 2 - Healthy -->
        <rect x="70" y="0" width="60" height="60" class="worker-healthy" rx="4"/>
        <text x="100" y="15" text-anchor="middle" class="success-text" font-size="8">W-02</text>
        <text x="100" y="28" text-anchor="middle" class="primary-text" font-size="7">ACTIVE</text>
        <text x="100" y="40" text-anchor="middle" class="success-text" font-size="7">72% CPU</text>
        <text x="100" y="52" text-anchor="middle" class="secondary-text" font-size="7">19 jobs/m</text>
        <circle cx="120" cy="10" r="4" fill="#9ece6a"/>

        <!-- Worker 3 - Degraded -->
        <rect x="140" y="0" width="60" height="60" class="worker-degraded" rx="4"/>
        <text x="170" y="15" text-anchor="middle" class="warning-text" font-size="8">W-03</text>
        <text x="170" y="28" text-anchor="middle" class="primary-text" font-size="7">SLOW</text>
        <text x="170" y="40" text-anchor="middle" class="warning-text" font-size="7">95% CPU</text>
        <text x="170" y="52" text-anchor="middle" class="secondary-text" font-size="7">8 jobs/m</text>
        <circle cx="190" cy="10" r="4" fill="#e0af68"/>

        <!-- Worker 4 - Healthy -->
        <rect x="210" y="0" width="60" height="60" class="worker-healthy" rx="4"/>
        <text x="240" y="15" text-anchor="middle" class="success-text" font-size="8">W-04</text>
        <text x="240" y="28" text-anchor="middle" class="primary-text" font-size="7">ACTIVE</text>
        <text x="240" y="40" text-anchor="middle" class="success-text" font-size="7">65% CPU</text>
        <text x="240" y="52" text-anchor="middle" class="secondary-text" font-size="7">21 jobs/m</text>
        <circle cx="260" cy="10" r="4" fill="#9ece6a"/>

        <!-- Worker 5 - Error -->
        <rect x="280" y="0" width="60" height="60" class="worker-error" rx="4"/>
        <text x="310" y="15" text-anchor="middle" class="danger-text" font-size="8">W-05</text>
        <text x="310" y="28" text-anchor="middle" class="danger-text" font-size="7">ERROR</text>
        <text x="310" y="40" text-anchor="middle" class="danger-text" font-size="7">Connection Lost</text>
        <text x="310" y="52" text-anchor="middle" class="secondary-text" font-size="7">0 jobs/m</text>
        <circle cx="330" cy="10" r="4" fill="#f7768e"/>

        <!-- Worker 6 - Idle -->
        <rect x="350" y="0" width="60" height="60" class="worker-idle" rx="4"/>
        <text x="380" y="15" text-anchor="middle" class="idle-text" font-size="8">W-06</text>
        <text x="380" y="28" text-anchor="middle" class="idle-text" font-size="7">IDLE</text>
        <text x="380" y="40" text-anchor="middle" class="idle-text" font-size="7">12% CPU</text>
        <text x="380" y="52" text-anchor="middle" class="secondary-text" font-size="7">0 jobs/m</text>
        <circle cx="400" cy="10" r="4" fill="#565f89"/>

        <!-- Continue pattern for more workers -->
        <rect x="420" y="0" width="60" height="60" class="worker-healthy" rx="4"/>
        <text x="450" y="15" text-anchor="middle" class="success-text" font-size="8">W-07</text>
        <text x="450" y="28" text-anchor="middle" class="primary-text" font-size="7">ACTIVE</text>
        <text x="450" y="40" text-anchor="middle" class="success-text" font-size="7">78% CPU</text>
        <text x="450" y="52" text-anchor="middle" class="secondary-text" font-size="7">24 jobs/m</text>
        <circle cx="470" cy="10" r="4" fill="#9ece6a"/>

        <rect x="490" y="0" width="60" height="60" class="worker-healthy" rx="4"/>
        <text x="520" y="15" text-anchor="middle" class="success-text" font-size="8">W-08</text>
        <text x="520" y="28" text-anchor="middle" class="primary-text" font-size="7">ACTIVE</text>
        <text x="520" y="40" text-anchor="middle" class="success-text" font-size="7">83% CPU</text>
        <text x="520" y="52" text-anchor="middle" class="secondary-text" font-size="7">26 jobs/m</text>
        <circle cx="540" cy="10" r="4" fill="#9ece6a"/>

        <rect x="560" y="0" width="60" height="60" class="worker-healthy" rx="4"/>
        <text x="590" y="15" text-anchor="middle" class="success-text" font-size="8">W-09</text>
        <text x="590" y="28" text-anchor="middle" class="primary-text" font-size="7">ACTIVE</text>
        <text x="590" y="40" text-anchor="middle" class="success-text" font-size="7">69% CPU</text>
        <text x="590" y="52" text-anchor="middle" class="secondary-text" font-size="7">18 jobs/m</text>
        <circle cx="610" cy="10" r="4" fill="#9ece6a"/>
      </g>

      <!-- Row 2 -->
      <g transform="translate(0,95)">
        <rect x="0" y="0" width="60" height="60" class="worker-healthy" rx="4"/>
        <text x="30" y="15" text-anchor="middle" class="success-text" font-size="8">W-10</text>
        <text x="30" y="28" text-anchor="middle" class="primary-text" font-size="7">ACTIVE</text>
        <text x="30" y="40" text-anchor="middle" class="success-text" font-size="7">91% CPU</text>
        <text x="30" y="52" text-anchor="middle" class="secondary-text" font-size="7">27 jobs/m</text>
        <circle cx="50" cy="10" r="4" fill="#9ece6a"/>

        <!-- Continue pattern -->
        <text x="700" y="30" class="secondary-text" font-size="8">... and 8 more workers</text>
      </g>

      <!-- Fleet Legend -->
      <g transform="translate(800,25)">
        <text x="0" y="15" class="accent-text" font-size="8">Legend:</text>

        <circle cx="10" cy="30" r="4" fill="#9ece6a"/>
        <text x="20" y="34" class="success-text" font-size="8">Healthy (12)</text>

        <circle cx="10" cy="45" r="4" fill="#e0af68"/>
        <text x="20" y="49" class="warning-text" font-size="8">Degraded (2)</text>

        <circle cx="10" cy="60" r="4" fill="#f7768e"/>
        <text x="20" y="64" class="danger-text" font-size="8">Error (1)</text>

        <circle cx="10" cy="75" r="4" fill="#565f89"/>
        <text x="20" y="79" class="idle-text" font-size="8">Idle (3)</text>

        <g transform="translate(0,95)">
          <rect x="0" y="0" width="200" height="40" class="panel-bg" stroke="#7aa2f7" rx="3"/>
          <text x="100" y="15" text-anchor="middle" class="secondary-text" font-size="8">Auto-Scaling Status</text>
          <text x="100" y="28" text-anchor="middle" class="success-text" font-size="8">✓ Target: 18 | Current: 18</text>
        </g>
      </g>

      <!-- Quick Actions Panel -->
      <g transform="translate(1050,25)">
        <text x="0" y="15" class="accent-text" font-size="8">Quick Actions:</text>

        <rect x="0" y="25" width="80" height="20" class="panel-bg" stroke="#9ece6a" rx="2"/>
        <text x="40" y="37" text-anchor="middle" class="success-text" font-size="7">🔄 Restart W-05</text>

        <rect x="90" y="25" width="80" height="20" class="panel-bg" stroke="#e0af68" rx="2"/>
        <text x="130" y="37" text-anchor="middle" class="warning-text" font-size="7">🚰 Drain W-03</text>

        <rect x="0" y="50" width="80" height="20" class="panel-bg" stroke="#7aa2f7" rx="2"/>
        <text x="40" y="62" text-anchor="middle" class="secondary-text" font-size="7">📊 Logs</text>

        <rect x="90" y="50" width="80" height="20" class="panel-bg" stroke="#bb9af7" rx="2"/>
        <text x="130" y="62" text-anchor="middle" class="accent-text" font-size="7">⚙ Config</text>

        <rect x="0" y="75" width="170" height="20" class="panel-bg" stroke="#f7768e" rx="2"/>
        <text x="85" y="87" text-anchor="middle" class="danger-text" font-size="7">🚨 Scale Down Region</text>

        <rect x="0" y="100" width="170" height="20" class="panel-bg" stroke="#9ece6a" rx="2"/>
        <text x="85" y="112" text-anchor="middle" class="success-text" font-size="7">🚀 Add 5 Workers</text>
      </g>
    </g>

    <!-- Worker Details Panel -->
    <rect x="20" y="220" width="680" height="520" class="panel-bg" rx="6"/>

    <!-- Details Header -->
    <rect x="20" y="220" width="680" height="30" fill="#1f2335" rx="6"/>
    <text x="30" y="240" class="accent-text" font-size="10">🔍 Worker Details - W-05 (Critical Status)</text>

    <!-- Worker Status -->
    <g transform="translate(30,260)">
      <text x="0" y="15" class="danger-text" font-size="9">⚠ Worker W-05 Status: CONNECTION_ERROR</text>

      <g transform="translate(0,25)">
        <rect x="0" y="0" width="660" height="120" fill="#1f2335" stroke="#414868" rx="3"/>

        <!-- Left column -->
        <g transform="translate(20,20)">
          <text x="0" y="0" class="secondary-text" font-size="8">Worker Information</text>

          <text x="0" y="20" class="secondary-text" font-size="8">ID:</text>
          <text x="100" y="20" class="primary-text" font-size="8">worker-05-us-east-1a</text>

          <text x="0" y="35" class="secondary-text" font-size="8">Instance:</text>
          <text x="100" y="35" class="primary-text" font-size="8">i-0123456789abcdef0</text>

          <text x="0" y="50" class="secondary-text" font-size="8">Started:</text>
          <text x="100" y="50" class="primary-text" font-size="8">2024-09-15 08:23:45 UTC</text>

          <text x="0" y="65" class="secondary-text" font-size="8">Last Heartbeat:</text>
          <text x="100" y="65" class="danger-text" font-size="8">2024-09-15 14:28:12 UTC (7m ago)</text>

          <text x="0" y="80" class="secondary-text" font-size="8">Version:</text>
          <text x="100" y="80" class="primary-text" font-size="8">v2.1.3</text>

          <text x="0" y="95" class="secondary-text" font-size="8">Queues:</text>
          <text x="100" y="95" class="primary-text" font-size="8">high-priority, normal-priority</text>
        </g>

        <!-- Right column -->
        <g transform="translate(350,20)">
          <text x="0" y="0" class="secondary-text" font-size="8">Performance Metrics</text>

          <text x="0" y="20" class="secondary-text" font-size="8">Jobs Processed:</text>
          <text x="120" y="20" class="primary-text" font-size="8">1,247 (lifetime)</text>

          <text x="0" y="35" class="secondary-text" font-size="8">Success Rate:</text>
          <text x="120" y="35" class="success-text" font-size="8">96.7% (before failure)</text>

          <text x="0" y="50" class="secondary-text" font-size="8">Avg Duration:</text>
          <text x="120" y="50" class="primary-text" font-size="8">2.3s</text>

          <text x="0" y="65" class="secondary-text" font-size="8">Memory Usage:</text>
          <text x="120" y="65" class="warning-text" font-size="8">Unknown (disconnected)</text>

          <text x="0" y="80" class="secondary-text" font-size="8">CPU Usage:</text>
          <text x="120" y="80" class="warning-text" font-size="8">Unknown (disconnected)</text>

          <text x="0" y="95" class="secondary-text" font-size="8">Network:</text>
          <text x="120" y="95" class="danger-text" font-size="8">Connection Lost</text>
        </g>
      </g>
    </g>

    <!-- Error Details -->
    <g transform="translate(30,410)">
      <text x="0" y="15" class="accent-text" font-size="9">Error Details & Diagnostics</text>

      <g transform="translate(0,25)">
        <rect x="0" y="0" width="660" height="100" fill="#441e1e" stroke="#f7768e" rx="3"/>

        <g transform="translate(20,20)">
          <text x="0" y="0" class="danger-text" font-size="8">🚨 Connection Error Details:</text>

          <text x="0" y="15" class="primary-text" font-size="8">Error: dial tcp 10.0.1.47:6379: i/o timeout</text>
          <text x="0" y="30" class="secondary-text" font-size="8">First occurrence: 14:28:12 UTC (7 minutes ago)</text>
          <text x="0" y="45" class="secondary-text" font-size="8">Retry attempts: 12/15 (exponential backoff)</text>
          <text x="0" y="60" class="warning-text" font-size="8">Impact: 0 jobs in progress lost, 23 jobs reassigned to other workers</text>

          <g transform="translate(400,0)">
            <text x="0" y="0" class="accent-text" font-size="8">Suggested Actions:</text>
            <text x="0" y="15" class="success-text" font-size="8">✓ Check network connectivity</text>
            <text x="0" y="30" class="success-text" font-size="8">✓ Restart worker instance</text>
            <text x="0" y="45" class="warning-text" font-size="8">⚠ Check Redis cluster health</text>
            <text x="0" y="60" class="secondary-text" font-size="8">ℹ Review instance health</text>
          </g>
        </g>
      </g>
    </g>

    <!-- Recent Activity -->
    <g transform="translate(30,530)">
      <text x="0" y="15" class="accent-text" font-size="9">Recent Activity (Last 30 minutes)</text>

      <g transform="translate(0,25)">
        <rect x="0" y="0" width="660" height="120" fill="#1f2335" stroke="#414868" rx="3"/>

        <g transform="translate(20,20)">
          <!-- Activity timeline -->
          <g>
            <circle cx="5" cy="5" r="3" fill="#f7768e"/>
            <text x="15" y="8" class="danger-text" font-size="8">14:28 - Connection lost to Redis cluster</text>
          </g>

          <g transform="translate(0,20)">
            <circle cx="5" cy="5" r="3" fill="#e0af68"/>
            <text x="15" y="8" class="warning-text" font-size="8">14:27 - High latency detected (2.3s → 8.9s avg)</text>
          </g>

          <g transform="translate(0,40)">
            <circle cx="5" cy="5" r="3" fill="#7aa2f7"/>
            <text x="15" y="8" class="secondary-text" font-size="8">14:25 - Completed job ABC123 (high-priority)</text>
          </g>

          <g transform="translate(0,60)">
            <circle cx="5" cy="5" r="3" fill="#9ece6a"/>
            <text x="15" y="8" class="success-text" font-size="8">14:23 - Processed batch of 12 jobs successfully</text>
          </g>

          <g transform="translate(0,80)">
            <circle cx="5" cy="5" r="3" fill="#9ece6a"/>
            <text x="15" y="8" class="success-text" font-size="8">14:20 - Worker health check passed</text>
          </g>

          <!-- Actions -->
          <g transform="translate(400,0)">
            <rect x="0" y="0" width="100" height="20" class="panel-bg" stroke="#9ece6a" rx="2"/>
            <text x="50" y="12" text-anchor="middle" class="success-text" font-size="8">🔄 Restart Worker</text>

            <rect x="0" y="25" width="100" height="20" class="panel-bg" stroke="#7aa2f7" rx="2"/>
            <text x="50" y="37" text-anchor="middle" class="secondary-text" font-size="8">📋 View Full Logs</text>

            <rect x="0" y="50" width="100" height="20" class="panel-bg" stroke="#bb9af7" rx="2"/>
            <text x="50" y="62" text-anchor="middle" class="accent-text" font-size="8">⚙ Debug Mode</text>

            <rect x="0" y="75" width="100" height="20" class="panel-bg" stroke="#f7768e" rx="2"/>
            <text x="50" y="87" text-anchor="middle" class="danger-text" font-size="8">🗑 Terminate</text>
          </g>
        </g>
      </g>
    </g>

    <!-- Worker Actions Panel -->
    <g transform="translate(30,670)">
      <rect x="0" y="0" width="660" height="50" fill="#1f2335" stroke="#414868" rx="3"/>

      <g transform="translate(20,15)">
        <rect x="0" y="0" width="100" height="20" class="panel-bg" stroke="#9ece6a" rx="2"/>
        <text x="50" y="12" text-anchor="middle" class="success-text" font-size="8">🚀 Auto-Restart</text>

        <rect x="110" y="0" width="100" height="20" class="panel-bg" stroke="#e0af68" rx="2"/>
        <text x="160" y="12" text-anchor="middle" class="warning-text" font-size="8">🚰 Graceful Drain</text>

        <rect x="220" y="0" width="100" height="20" class="panel-bg" stroke="#7aa2f7" rx="2"/>
        <text x="270" y="12" text-anchor="middle" class="secondary-text" font-size="8">📊 Performance</text>

        <rect x="330" y="0" width="100" height="20" class="panel-bg" stroke="#bb9af7" rx="2"/>
        <text x="380" y="12" text-anchor="middle" class="accent-text" font-size="8">⚙ Configuration</text>

        <rect x="440" y="0" width="100" height="20" class="panel-bg" stroke="#f7768e" rx="2"/>
        <text x="490" y="12" text-anchor="middle" class="danger-text" font-size="8">🛑 Force Stop</text>

        <rect x="550" y="0" width="80" height="20" class="panel-bg" stroke="#565f89" rx="2"/>
        <text x="590" y="12" text-anchor="middle" class="idle-text" font-size="8">📝 SSH</text>
      </g>
    </g>

    <!-- Right Panel: Fleet Analytics -->
    <rect x="720" y="220" width="660" height="520" class="panel-bg" rx="6"/>

    <!-- Analytics Header -->
    <rect x="720" y="220" width="660" height="30" fill="#1f2335" rx="6"/>
    <text x="730" y="240" class="accent-text" font-size="10">📈 Fleet Analytics & Auto-Scaling</text>

    <!-- Performance Charts -->
    <g transform="translate(730,260)">
      <text x="0" y="15" class="accent-text">Fleet Performance (Last 6 Hours)</text>

      <g transform="translate(0,25)">
        <rect x="0" y="0" width="640" height="150" fill="#1f2335" stroke="#414868" rx="3"/>

        <!-- Chart area -->
        <g transform="translate(20,20)">
          <rect x="0" y="0" width="600" height="110" fill="#16161e" stroke="#414868" rx="2"/>

          <!-- Performance lines -->
          <polyline points="10,90 50,85 90,80 130,75 170,70 210,65 250,60 290,70 330,75 370,80 410,85 450,90 490,95 530,90 570,85"
                    fill="none" stroke="#9ece6a" stroke-width="2"/>
          <polyline points="10,95 50,92 90,89 130,86 170,83 210,80 250,77 290,83 330,86 370,89 410,92 450,95 490,98 530,95 570,92"
                    fill="none" stroke="#7aa2f7" stroke-width="2"/>
          <polyline points="10,100 50,98 90,96 130,94 170,92 210,90 250,88 290,92 330,94 370,96 410,98 450,100 490,102 530,100 570,98"
                    fill="none" stroke="#e0af68" stroke-width="2"/>

          <!-- Y-axis labels -->
          <text x="5" y="15" class="secondary-text" font-size="7">100%</text>
          <text x="5" y="40" class="secondary-text" font-size="7">75%</text>
          <text x="5" y="65" class="secondary-text" font-size="7">50%</text>
          <text x="5" y="90" class="secondary-text" font-size="7">25%</text>
          <text x="5" y="115" class="secondary-text" font-size="7">0%</text>

          <!-- Legend -->
          <g transform="translate(450,10)">
            <rect x="0" y="0" width="8" height="2" fill="#9ece6a"/>
            <text x="12" y="8" class="success-text" font-size="7">Throughput</text>

            <rect x="0" y="15" width="8" height="2" fill="#7aa2f7"/>
            <text x="12" y="23" class="secondary-text" font-size="7">CPU Usage</text>

            <rect x="0" y="30" width="8" height="2" fill="#e0af68"/>
            <text x="12" y="38" class="warning-text" font-size="7">Memory</text>
          </g>
        </g>
      </g>
    </g>

    <!-- Auto-Scaling Status -->
    <g transform="translate(730,445)">
      <text x="0" y="15" class="accent-text">Auto-Scaling Configuration</text>

      <g transform="translate(0,25)">
        <rect x="0" y="0" width="640" height="120" fill="#1f2335" stroke="#414868" rx="3"/>

        <g transform="translate(20,20)">
          <!-- Current scaling policy -->
          <text x="0" y="15" class="success-text" font-size="8">✓ Auto-Scaling: ENABLED</text>
          <text x="0" y="30" class="secondary-text" font-size="8">Target CPU: 70% • Current: 78% • Target Workers: 18 • Current: 17</text>

          <!-- Scaling rules -->
          <g transform="translate(0,45)">
            <text x="0" y="0" class="accent-text" font-size="8">Scaling Rules:</text>
            <text x="0" y="15" class="secondary-text" font-size="8">• Scale UP: CPU > 85% for 5 minutes OR Queue backlog > 100</text>
            <text x="0" y="30" class="secondary-text" font-size="8">• Scale DOWN: CPU < 40% for 10 minutes AND Queue backlog < 10</text>
            <text x="0" y="45" class="warning-text" font-size="8">• Max instances: 25 • Min instances: 5 • Cooldown: 5 minutes</text>
          </g>

          <!-- Recent scaling events -->
          <g transform="translate(350,15)">
            <text x="0" y="0" class="accent-text" font-size="8">Recent Events:</text>
            <text x="0" y="15" class="success-text" font-size="8">13:45 - Scaled UP: 15 → 18 workers</text>
            <text x="0" y="30" class="secondary-text" font-size="8">12:20 - Scaling triggered by high CPU</text>
            <text x="0" y="45" class="secondary-text" font-size="8">11:15 - Auto-healing: Replaced W-12</text>
            <text x="0" y="60" class="secondary-text" font-size="8">10:30 - Scaled DOWN: 20 → 15 workers</text>
          </g>
        </g>
      </g>
    </g>

    <!-- Resource Utilization -->
    <g transform="translate(730,590)">
      <text x="0" y="15" class="accent-text">Resource Utilization Summary</text>

      <g transform="translate(0,25)">
        <rect x="0" y="0" width="640" height="100" fill="#1f2335" stroke="#414868" rx="3"/>

        <g transform="translate(20,20)">
          <!-- CPU utilization -->
          <text x="0" y="15" class="secondary-text" font-size="8">Fleet CPU:</text>
          <rect x="80" y="5" width="200" height="12" fill="#16161e" stroke="#414868" rx="6"/>
          <rect x="80" y="5" width="156" height="12" fill="#7aa2f7" rx="6"/>
          <text x="290" y="14" class="secondary-text" font-size="8">78% (Target: 70%)</text>

          <!-- Memory utilization -->
          <text x="0" y="35" class="secondary-text" font-size="8">Fleet Memory:</text>
          <rect x="80" y="25" width="200" height="12" fill="#16161e" stroke="#414868" rx="6"/>
          <rect x="80" y="25" width="128" height="12" fill="#9ece6a" rx="6"/>
          <text x="290" y="34" class="success-text" font-size="8">64% (Normal)</text>

          <!-- Network utilization -->
          <text x="0" y="55" class="secondary-text" font-size="8">Network:</text>
          <rect x="80" y="45" width="200" height="12" fill="#16161e" stroke="#414868" rx="6"/>
          <rect x="80" y="45" width="80" height="12" fill="#bb9af7" rx="6"/>
          <text x="290" y="54" class="accent-text" font-size="8">40% (Low)</text>

          <!-- Cost optimization -->
          <g transform="translate(350,0)">
            <text x="0" y="15" class="accent-text" font-size="8">Cost Optimization:</text>
            <text x="0" y="30" class="success-text" font-size="8">Monthly: $2,847 (15% under budget)</text>
            <text x="0" y="45" class="secondary-text" font-size="8">Spot instances: 67% • Savings: $987</text>
            <text x="0" y="60" class="warning-text" font-size="8">Recommendation: Scale down 2 workers</text>
          </g>
        </g>
      </g>
    </g>

    <!-- Fleet Controls -->
    <g transform="translate(730,715)">
      <rect x="0" y="0" width="640" height="25" fill="#1f2335" stroke="#414868" rx="3"/>

      <g transform="translate(20,5)">
        <rect x="0" y="0" width="80" height="15" class="panel-bg" stroke="#9ece6a" rx="2"/>
        <text x="40" y="10" text-anchor="middle" class="success-text" font-size="7">🚀 Scale Fleet</text>

        <rect x="90" y="0" width="80" height="15" class="panel-bg" stroke="#e0af68" rx="2"/>
        <text x="130" y="10" text-anchor="middle" class="warning-text" font-size="7">🔄 Rolling Deploy</text>

        <rect x="180" y="0" width="80" height="15" class="panel-bg" stroke="#7aa2f7" rx="2"/>
        <text x="220" y="10" text-anchor="middle" class="secondary-text" font-size="7">⚙ Configure</text>

        <rect x="270" y="0" width="80" height="15" class="panel-bg" stroke="#bb9af7" rx="2"/>
        <text x="310" y="10" text-anchor="middle" class="accent-text" font-size="7">📊 Reports</text>

        <rect x="360" y="0" width="120" height="15" class="panel-bg" stroke="#f7768e" rx="2"/>
        <text x="420" y="10" text-anchor="middle" class="danger-text" font-size="7">🛑 Emergency Shutdown</text>

        <rect x="490" y="0" width="120" height="15" class="panel-bg" stroke="#565f89" rx="2"/>
        <text x="550" y="10" text-anchor="middle" class="idle-text" font-size="7">💤 Maintenance Mode</text>
      </g>
    </g>
  </g>
</svg>